{
.appVersion = "1141";
DisplayStrings = (
"/dieresiscomb",
T,
T,
_,

glyphs = (
{
glyphname = A;
lastChange = "2018-04-18 21:20:06 +0000";
layers = (
{
anchors = (
{
name = bottom;
position = "{316, 0}";
},
{
name = ogonek;
position = "{569, 10}";
},
{
name = top;
position = "{316, 665}";
}
);
layerId = "06F59E53-88A9-464B-8828-77AFB389ECED";
paths = (
{
closed = 1;
nodes = (
"352 664 LINE",
"280 664 LINE",
"45 0 LINE",
"94 0 LINE",
"186 256 LINE",
"448 256 LINE",
"538 0 LINE",
"587 0 LINE"
);
},
{
closed = 1;
nodes = (
"199 297 LINE",
"316 630 LINE",
"433 297 LINE"
);
}
);
width = 632;
}
);
note = A;
unicode = 0041;
},
{
glyphname = AE;
lastChange = "2018-04-11 02:03:56 +0000";
layers = (
{
anchors = (
{
name = bottom;
position = "{316, 1}";
},
{
name = ogonek;
position = "{569, 11}";
},
{
name = top;
position = "{316, 666}";
}
);
components = (
{
alignment = -1;
name = E;
transform = "{1, 0, 0, 1, 366, 0}";
}
);
layerId = "06F59E53-88A9-464B-8828-77AFB389ECED";
paths = (
{
closed = 1;
nodes = (
"278 620 LINE",
"469 620 LINE",
"469 665 LINE",
"286 665 LINE"
);
},
{
closed = 1;
nodes = (
"337 665 LINE",
"280 665 LINE",
"45 1 LINE",
"94 1 LINE",
"183 254 LINE"
);
},
{
closed = 1;
nodes = (
"165 254 LINE",
"459 254 LINE",
"459 298 LINE",
"165 298 LINE"
);
}
);
width = 820;
}
);
unicode = 00C6;
},
{
glyphname = B;
lastChange = "2018-03-20 01:15:58 +0000";
layers = (
{
layerId = "06F59E53-88A9-464B-8828-77AFB389ECED";
paths = (
{
closed = 1;
nodes = (
"321 0 OFFCURVE",
"367 20 OFFCURVE",
"400 52 CURVE SMOOTH",
"432 84 OFFCURVE",
"453 128 OFFCURVE",
"453 177 CURVE SMOOTH",
"453 244 OFFCURVE",
"417 300 OFFCURVE",
"348 340 CURVE",
"401 384 OFFCURVE",
"427 434 OFFCURVE",
"427 489 CURVE SMOOTH",
"427 538 OFFCURVE",
"406 583 OFFCURVE",
"374 615 CURVE SMOOTH",
"341 647 OFFCURVE",
"294 667 OFFCURVE",
"245 667 CURVE SMOOTH",
"105 666 LINE",
"50 666 LINE",
"50 0 LINE",
"270 0 LINE SMOOTH"
);
},
{
closed = 1;
nodes = (
"282 621 OFFCURVE",
"316 606 OFFCURVE",
"341 582 CURVE SMOOTH",
"365 558 OFFCURVE",
"381 525 OFFCURVE",
"381 489 CURVE SMOOTH",
"381 452 OFFCURVE",
"365 418 OFFCURVE",
"341 394 CURVE SMOOTH",
"316 370 OFFCURVE",
"282 355 OFFCURVE",
"245 355 CURVE SMOOTH",
"96 355 LINE",
"96 621 LINE",
"245 621 LINE SMOOTH"
);
},
{
closed = 1;
nodes = (
"307 311 OFFCURVE",
"342 296 OFFCURVE",
"367 272 CURVE SMOOTH",
"392 248 OFFCURVE",
"407 214 OFFCURVE",
"407 177 CURVE SMOOTH",
"407 141 OFFCURVE",
"392 108 OFFCURVE",
"367 84 CURVE SMOOTH",
"342 60 OFFCURVE",
"307 45 OFFCURVE",
"270 45 CURVE SMOOTH",
"96 45 LINE",
"96 311 LINE",
"270 311 LINE SMOOTH"
);
}
);
width = 493;
}
);
note = B;
unicode = 0042;
},
{
glyphname = C;
lastChange = "2018-04-11 01:42:50 +0000";
layers = (
{
anchors = (
{
name = bottom;
position = "{378, -4}";
},
{
name = top;
position = "{378, 661}";
}
);
layerId = "06F59E53-88A9-464B-8828-77AFB389ECED";
paths = (
{
closed = 1;
nodes = (
"473 -4 OFFCURVE",
"561 35 OFFCURVE",
"625 104 CURVE",
"591 133 LINE",
"535 74 OFFCURVE",
"459 42 OFFCURVE",
"378 42 CURVE SMOOTH",
"298 42 OFFCURVE",
"224 75 OFFCURVE",
"172 127 CURVE SMOOTH",
"119 179 OFFCURVE",
"86 252 OFFCURVE",
"86 332 CURVE SMOOTH",
"86 412 OFFCURVE",
"119 485 OFFCURVE",
"172 537 CURVE SMOOTH",
"224 589 OFFCURVE",
"298 622 OFFCURVE",
"378 622 CURVE SMOOTH",
"459 622 OFFCURVE",
"535 590 OFFCURVE",
"591 531 CURVE",
"626 560 LINE",
"562 631 OFFCURVE",
"473 668 OFFCURVE",
"378 668 CURVE SMOOTH",
"285 668 OFFCURVE",
"200 630 OFFCURVE",
"139 570 CURVE SMOOTH",
"78 509 OFFCURVE",
"40 425 OFFCURVE",
"40 332 CURVE SMOOTH",
"40 239 OFFCURVE",
"78 155 OFFCURVE",
"139 95 CURVE SMOOTH",
"200 34 OFFCURVE",
"285 -4 OFFCURVE",
"378 -4 CURVE SMOOTH"
);
}
);
width = 671;
}
);
note = C;
unicode = 0043;
},
{
glyphname = D;
lastChange = "2018-04-11 02:00:24 +0000";
layers = (
{
anchors = (
{
name = bottom;
position = "{296, 0}";
},
{
name = center;
position = "{194, 333}";
},
{
name = top;
position = "{296, 665}";
}
);
layerId = "06F59E53-88A9-464B-8828-77AFB389ECED";
paths = (
{
closed = 1;
nodes = (
"307 0 OFFCURVE",
"391 37 OFFCURVE",
"452 98 CURVE SMOOTH",
"513 158 OFFCURVE",
"551 241 OFFCURVE",
"551 333 CURVE SMOOTH",
"551 425 OFFCURVE",
"513 508 OFFCURVE",
"452 569 CURVE SMOOTH",
"391 629 OFFCURVE",
"307 666 OFFCURVE",
"214 666 CURVE SMOOTH",
"50 666 LINE",
"50 0 LINE",
"214 0 LINE SMOOTH"
);
},
{
closed = 1;
nodes = (
"294 621 OFFCURVE",
"368 589 OFFCURVE",
"421 537 CURVE SMOOTH",
"473 485 OFFCURVE",
"506 413 OFFCURVE",
"506 333 CURVE SMOOTH",
"506 253 OFFCURVE",
"473 181 OFFCURVE",
"421 129 CURVE SMOOTH",
"368 77 OFFCURVE",
"294 45 OFFCURVE",
"214 45 CURVE SMOOTH",
"96 45 LINE",
"96 621 LINE",
"214 621 LINE SMOOTH"
);
}
);
width = 591;
}
);
note = D;
unicode = 0044;
},
{
glyphname = E;
lastChange = "2018-03-22 21:17:15 +0000";
layers = (
{
anchors = (
{
name = bottom;
position = "{232, 0}";
},
{
name = ogonek;
position = "{418, 10}";
},
{
name = top;
position = "{232, 665}";
},
{
name = topleft;
position = "{20, 665}";
}
);
layerId = "06F59E53-88A9-464B-8828-77AFB389ECED";
paths = (
{
closed = 1;
nodes = (
"414 45 LINE",
"96 45 LINE",
"96 310 LINE",
"310 310 LINE",
"310 354 LINE",
"96 354 LINE",
"96 620 LINE",
"414 620 LINE",
"414 665 LINE",
"50 665 LINE",
"50 0 LINE",
"414 0 LINE"
);
}
);
width = 464;
}
);
note = E;
unicode = 0045;
},
{
glyphname = F;
lastChange = "2018-03-20 01:15:58 +0000";
layers = (
{
layerId = "06F59E53-88A9-464B-8828-77AFB389ECED";
paths = (
{
closed = 1;
nodes = (
"414 665 LINE",
"50 665 LINE",
"50 0 LINE",
"95 0 LINE",
"95 310 LINE",
"310 310 LINE",
"310 354 LINE",
"95 354 LINE",
"95 620 LINE",
"414 620 LINE"
);
}
);
width = 454;
}
);
note = F;
unicode = 0046;
},
{
glyphname = G;
lastChange = "2018-04-11 01:43:07 +0000";
layers = (
{
anchors = (
{
name = bottom;
position = "{347, 0}";
},
{
name = top;
position = "{347, 665}";
}
);
layerId = "06F59E53-88A9-464B-8828-77AFB389ECED";
paths = (
{
closed = 1;
nodes = (
"603 83 OFFCURVE",
"624 105 OFFCURVE",
"643 130 CURVE",
"643 299 LINE",
"498 299 LINE",
"498 255 LINE",
"599 255 LINE",
"598 146 LINE",
"538 78 OFFCURVE",
"461 42 OFFCURVE",
"374 42 CURVE SMOOTH",
"342 42 OFFCURVE",
"311 47 OFFCURVE",
"281 58 CURVE SMOOTH",
"221 78 OFFCURVE",
"169 118 OFFCURVE",
"134 170 CURVE SMOOTH",
"99 222 OFFCURVE",
"80 289 OFFCURVE",
"88 358 CURVE SMOOTH",
"95 427 OFFCURVE",
"126 487 OFFCURVE",
"168 531 CURVE SMOOTH",
"210 575 OFFCURVE",
"276 614 OFFCURVE",
"360 618 CURVE SMOOTH",
"444 621 OFFCURVE",
"526 590 OFFCURVE",
"586 527 CURVE",
"621 556 LINE",
"566 613 OFFCURVE",
"498 649 OFFCURVE",
"423 660 CURVE SMOOTH",
"350 671 OFFCURVE",
"276 656 OFFCURVE",
"212 621 CURVE SMOOTH",
"151 588 OFFCURVE",
"104 536 OFFCURVE",
"73 473 CURVE SMOOTH",
"41 405 OFFCURVE",
"32 328 OFFCURVE",
"49 255 CURVE SMOOTH",
"56 227 OFFCURVE",
"66 200 OFFCURVE",
"79 173 CURVE",
"123 92 OFFCURVE",
"195 35 OFFCURVE",
"277 11 CURVE SMOOTH",
"359 -14 OFFCURVE",
"451 -8 OFFCURVE",
"532 35 CURVE SMOOTH",
"549 44 OFFCURVE",
"563 53 OFFCURVE",
"578 64 CURVE SMOOTH"
);
}
);
width = 693;
}
);
note = G;
unicode = 0047;
},
{
glyphname = H;
lastChange = "2018-04-11 02:15:03 +0000";
layers = (
{
anchors = (
{
name = bottom;
position = "{273, 0}";
},
{
name = center;
position = "{273, 555}";
},
{
name = top;
position = "{273, 665}";
},
{
name = topleft;
position = "{20, 665}";
}
);
layerId = "06F59E53-88A9-464B-8828-77AFB389ECED";
paths = (
{
closed = 1;
nodes = (
"495 665 LINE",
"451 665 LINE",
"451 354 LINE",
"96 354 LINE",
"96 665 LINE",
"50 665 LINE",
"50 0 LINE",
"96 0 LINE",
"96 310 LINE",
"451 310 LINE",
"451 0 LINE",
"495 0 LINE"
);
}
);
width = 545;
}
);
note = H;
unicode = 0048;
},
{
glyphname = I;
lastChange = "2018-03-22 21:49:24 +0000";
layers = (
{
anchors = (
{
name = bottom;
position = "{73, 0}";
},
{
name = ogonek;
position = "{84, 10}";
},
{
name = top;
position = "{73, 665}";
},
{
name = topleft;
position = "{20, 665}";
}
);
layerId = "06F59E53-88A9-464B-8828-77AFB389ECED";
paths = (
{
closed = 1;
nodes = (
"96 665 LINE",
"50 665 LINE",
"50 0 LINE",
"96 0 LINE"
);
}
);
width = 146;
}
);
note = I;
unicode = 0049;
},
{
glyphname = J;
lastChange = "2018-04-11 01:43:42 +0000";
layers = (
{
layerId = "06F59E53-88A9-464B-8828-77AFB389ECED";
paths = (
{
closed = 1;
nodes = (
"91 4 OFFCURVE",
"134 24 OFFCURVE",
"167 56 CURVE SMOOTH",
"199 88 OFFCURVE",
"219 130 OFFCURVE",
"219 177 CURVE SMOOTH",
"219 665 LINE",
"173 665 LINE",
"173 177 LINE SMOOTH",
"173 142 OFFCURVE",
"158 112 OFFCURVE",
"134 88 CURVE SMOOTH",
"110 64 OFFCURVE",
"77 49 OFFCURVE",
"40 45 CURVE",
"40 0 LINE"
);
}
);
width = 269;
}
);
note = J;
unicode = 004A;
},
{
glyphname = K;
lastChange = "2018-04-16 22:41:34 +0000";
layers = (
{
layerId = "06F59E53-88A9-464B-8828-77AFB389ECED";
paths = (
{
closed = 1;
nodes = (
"139 327 LINE",
"435 664 LINE",
"374 664 LINE",
"96 347 LINE",
"96 664 LINE",
"50 664 LINE",
"50 0 LINE",
"96 0 LINE",
"96 306 LINE",
"378 0 LINE",
"440 0 LINE"
);
}
);
width = 480;
}
);
note = K;
unicode = 004B;
},
{
glyphname = L;
lastChange = "2018-03-22 21:49:10 +0000";
layers = (
{
anchors = (
{
name = bottom;
position = "{167, 0}";
},
{
name = center;
position = "{78, 333}";
},
{
name = top;
position = "{188, 665}";
},
{
name = topright;
position = "{356, 665}";
}
);
layerId = "06F59E53-88A9-464B-8828-77AFB389ECED";
paths = (
{
closed = 1;
nodes = (
"294 45 LINE",
"98 45 LINE",
"98 665 LINE",
"50 665 LINE",
"50 0 LINE",
"294 0 LINE"
);
}
);
width = 344;
}
);
note = L;
unicode = 004C;
},
{
glyphname = M;
lastChange = "2018-03-20 01:15:58 +0000";
layers = (
{
layerId = "06F59E53-88A9-464B-8828-77AFB389ECED";
paths = (
{
closed = 1;
nodes = (
"693 665 LINE",
"624 665 LINE",
"371 299 LINE",
"118 665 LINE",
"50 665 LINE",
"50 0 LINE",
"95 0 LINE",
"95 619 LINE",
"348 254 LINE",
"394 254 LINE",
"647 619 LINE",
"647 2 LINE",
"693 2 LINE"
);
}
);
width = 743;
}
);
note = M;
unicode = 004D;
},
{
glyphname = N;
lastChange = "2018-03-22 21:17:24 +0000";
layers = (
{
anchors = (
{
name = bottom;
position = "{293, 0}";
},
{
name = top;
position = "{293, 665}";
}
);
layerId = "06F59E53-88A9-464B-8828-77AFB389ECED";
paths = (
{
closed = 1;
nodes = (
"535 665 LINE",
"490 665 LINE",
"490 59 LINE",
"105 665 LINE",
"50 665 LINE",
"50 0 LINE",
"96 0 LINE",
"96 590 LINE",
"470 0 LINE",
"535 0 LINE"
);
}
);
width = 585;
}
);
note = N;
unicode = 004E;
},
{
glyphname = O;
lastChange = "2018-03-22 21:17:27 +0000";
layers = (
{
anchors = (
{
name = bottom;
position = "{374, 0}";
},
{
name = center;
position = "{374, 333}";
},
{
name = ogonek;
position = "{672, 10}";
},
{
name = top;
position = "{374, 665}";
},
{
name = topleft;
position = "{20, 665}";
},
{
name = topright;
position = "{727, 665}";
}
);
layerId = "06F59E53-88A9-464B-8828-77AFB389ECED";
paths = (
{
closed = 1;
nodes = (
"465 -5 OFFCURVE",
"549 32 OFFCURVE",
"609 93 CURVE SMOOTH",
"669 153 OFFCURVE",
"707 236 OFFCURVE",
"707 328 CURVE SMOOTH",
"707 420 OFFCURVE",
"669 504 OFFCURVE",
"609 564 CURVE SMOOTH",
"549 624 OFFCURVE",
"465 662 OFFCURVE",
"373 662 CURVE SMOOTH",
"281 662 OFFCURVE",
"198 624 OFFCURVE",
"138 564 CURVE SMOOTH",
"77 504 OFFCURVE",
"40 420 OFFCURVE",
"40 328 CURVE SMOOTH",
"40 236 OFFCURVE",
"77 153 OFFCURVE",
"138 93 CURVE SMOOTH",
"198 32 OFFCURVE",
"281 -5 OFFCURVE",
"373 -5 CURVE SMOOTH"
);
},
{
closed = 1;
nodes = (
"453 616 OFFCURVE",
"525 584 OFFCURVE",
"577 532 CURVE SMOOTH",
"629 480 OFFCURVE",
"661 408 OFFCURVE",
"661 328 CURVE SMOOTH",
"661 248 OFFCURVE",
"629 176 OFFCURVE",
"577 124 CURVE SMOOTH",
"525 72 OFFCURVE",
"453 40 OFFCURVE",
"373 40 CURVE SMOOTH",
"293 40 OFFCURVE",
"221 72 OFFCURVE",
"169 124 CURVE SMOOTH",
"117 176 OFFCURVE",
"85 248 OFFCURVE",
"85 328 CURVE SMOOTH",
"85 408 OFFCURVE",
"117 480 OFFCURVE",
"169 532 CURVE SMOOTH",
"221 584 OFFCURVE",
"293 616 OFFCURVE",
"373 616 CURVE SMOOTH"
);
}
);
width = 747;
}
);
note = O;
unicode = 004F;
},
{
glyphname = P;
lastChange = "2018-03-20 01:15:58 +0000";
layers = (
{
layerId = "06F59E53-88A9-464B-8828-77AFB389ECED";
paths = (
{
closed = 1;
nodes = (
"294 249 OFFCURVE",
"347 273 OFFCURVE",
"387 310 CURVE SMOOTH",
"426 347 OFFCURVE",
"450 400 OFFCURVE",
"450 457 CURVE SMOOTH",
"450 514 OFFCURVE",
"426 566 OFFCURVE",
"387 604 CURVE SMOOTH",
"347 642 OFFCURVE",
"294 665 OFFCURVE",
"235 665 CURVE SMOOTH",
"50 665 LINE",
"50 0 LINE",
"97 0 LINE",
"97 249 LINE",
"235 249 LINE SMOOTH"
);
},
{
closed = 1;
nodes = (
"282 619 OFFCURVE",
"323 601 OFFCURVE",
"354 572 CURVE SMOOTH",
"385 543 OFFCURVE",
"403 502 OFFCURVE",
"403 457 CURVE SMOOTH",
"403 412 OFFCURVE",
"385 370 OFFCURVE",
"354 341 CURVE SMOOTH",
"323 312 OFFCURVE",
"282 293 OFFCURVE",
"235 293 CURVE SMOOTH",
"97 293 LINE",
"97 619 LINE",
"235 619 LINE SMOOTH"
);
}
);
width = 490;
}
);
note = P;
unicode = 0050;
},
{
glyphname = Thorn;
lastChange = "2018-04-11 02:12:11 +0000";
layers = (
{
layerId = "06F59E53-88A9-464B-8828-77AFB389ECED";
paths = (
{
closed = 1;
nodes = (
"294 116 OFFCURVE",
"347 139 OFFCURVE",
"387 177 CURVE SMOOTH",
"426 214 OFFCURVE",
"450 267 OFFCURVE",
"450 324 CURVE SMOOTH",
"450 381 OFFCURVE",
"426 433 OFFCURVE",
"387 471 CURVE SMOOTH",
"347 510 OFFCURVE",
"294 532 OFFCURVE",
"235 532 CURVE SMOOTH",
"50 532 LINE",
"50 -30 LINE",
"97 -30 LINE",
"97 116 LINE",
"235 116 LINE SMOOTH"
);
},
{
closed = 1;
nodes = (
"282 486 OFFCURVE",
"323 468 OFFCURVE",
"354 439 CURVE SMOOTH",
"385 410 OFFCURVE",
"403 369 OFFCURVE",
"403 324 CURVE SMOOTH",
"403 279 OFFCURVE",
"385 237 OFFCURVE",
"354 208 CURVE SMOOTH",
"323 179 OFFCURVE",
"282 160 OFFCURVE",
"235 160 CURVE SMOOTH",
"97 160 LINE",
"97 486 LINE",
"235 486 LINE SMOOTH"
);
},
{
closed = 1;
nodes = (
"50 532 LINE",
"97 532 LINE",
"97 681 LINE",
"50 681 LINE"
);
}
);
width = 490;
}
);
unicode = 00DE;
},
{
glyphname = Q;
lastChange = "2018-03-20 01:15:58 +0000";
layers = (
{
layerId = "06F59E53-88A9-464B-8828-77AFB389ECED";
paths = (
{
closed = 1;
nodes = (
"707 45 LINE",
"544 45 LINE",
"656 129 OFFCURVE",
"707 225 OFFCURVE",
"707 333 CURVE SMOOTH",
"707 425 OFFCURVE",
"669 509 OFFCURVE",
"609 569 CURVE SMOOTH",
"549 629 OFFCURVE",
"465 667 OFFCURVE",
"373 667 CURVE SMOOTH",
"281 667 OFFCURVE",
"198 629 OFFCURVE",
"138 569 CURVE SMOOTH",
"77 509 OFFCURVE",
"40 425 OFFCURVE",
"40 333 CURVE SMOOTH",
"40 241 OFFCURVE",
"77 158 OFFCURVE",
"138 98 CURVE SMOOTH",
"198 37 OFFCURVE",
"281 0 OFFCURVE",
"373 0 CURVE SMOOTH",
"376 0 LINE",
"707 0 LINE"
);
},
{
closed = 1;
nodes = (
"453 621 OFFCURVE",
"525 589 OFFCURVE",
"577 537 CURVE SMOOTH",
"629 485 OFFCURVE",
"661 413 OFFCURVE",
"661 333 CURVE SMOOTH",
"661 253 OFFCURVE",
"629 181 OFFCURVE",
"577 129 CURVE SMOOTH",
"525 77 OFFCURVE",
"453 45 OFFCURVE",
"373 45 CURVE SMOOTH",
"293 45 OFFCURVE",
"221 77 OFFCURVE",
"169 129 CURVE SMOOTH",
"117 181 OFFCURVE",
"85 253 OFFCURVE",
"85 333 CURVE SMOOTH",
"85 413 OFFCURVE",
"117 485 OFFCURVE",
"169 537 CURVE SMOOTH",
"221 589 OFFCURVE",
"293 621 OFFCURVE",
"373 621 CURVE SMOOTH"
);
}
);
width = 747;
}
);
note = Q;
unicode = 0051;
},
{
glyphname = R;
lastChange = "2018-04-11 01:44:10 +0000";
layers = (
{
anchors = (
{
name = bottom;
position = "{236, 0}";
},
{
name = top;
position = "{236, 665}";
}
);
layerId = "06F59E53-88A9-464B-8828-77AFB389ECED";
paths = (
{
closed = 1;
nodes = (
"185 248 LINE",
"219 248 LINE SMOOTH",
"278 248 OFFCURVE",
"330 272 OFFCURVE",
"369 309 CURVE SMOOTH",
"408 346 OFFCURVE",
"432 399 OFFCURVE",
"432 456 CURVE SMOOTH",
"432 513 OFFCURVE",
"408 566 OFFCURVE",
"369 603 CURVE SMOOTH",
"330 640 OFFCURVE",
"278 664 OFFCURVE",
"219 664 CURVE SMOOTH",
"50 664 LINE",
"50 0 LINE",
"97 0 LINE",
"97 248 LINE",
"123 248 LINE",
"353 0 LINE",
"415 0 LINE"
);
},
{
closed = 1;
nodes = (
"264 619 OFFCURVE",
"306 600 OFFCURVE",
"337 571 CURVE SMOOTH",
"368 542 OFFCURVE",
"386 501 OFFCURVE",
"386 456 CURVE SMOOTH",
"386 411 OFFCURVE",
"367 370 OFFCURVE",
"337 341 CURVE SMOOTH",
"307 312 OFFCURVE",
"264 293 OFFCURVE",
"219 293 CURVE SMOOTH",
"97 293 LINE",
"97 619 LINE",
"219 619 LINE SMOOTH"
);
}
);
width = 472;
}
);
note = R;
unicode = 0052;
},
{
glyphname = S;
lastChange = "2018-03-22 21:35:04 +0000";
layers = (
{
anchors = (
{
name = bottom;
position = "{258, 0}";
},
{
name = top;
position = "{268, 665}";
}
);
layerId = "06F59E53-88A9-464B-8828-77AFB389ECED";
paths = (
{
closed = 1;
nodes = (
"483 536 OFFCURVE",
"462 581 OFFCURVE",
"427 614 CURVE SMOOTH",
"391 646 OFFCURVE",
"339 667 OFFCURVE",
"270 667 CURVE SMOOTH",
"201 667 OFFCURVE",
"150 649 OFFCURVE",
"114 614 CURVE SMOOTH",
"82 582 OFFCURVE",
"63 536 OFFCURVE",
"63 483 CURVE SMOOTH",
"63 376 OFFCURVE",
"127 318 OFFCURVE",
"254 308 CURVE SMOOTH",
"331 301 OFFCURVE",
"381 287 OFFCURVE",
"410 266 CURVE SMOOTH",
"439 245 OFFCURVE",
"449 214 OFFCURVE",
"449 177 CURVE SMOOTH",
"449 158 OFFCURVE",
"445 140 OFFCURVE",
"438 124 CURVE",
"422 91 OFFCURVE",
"394 67 OFFCURVE",
"355 53 CURVE SMOOTH",
"316 39 OFFCURVE",
"255 33 OFFCURVE",
"202 48 CURVE SMOOTH",
"149 63 OFFCURVE",
"105 99 OFFCURVE",
"89 166 CURVE",
"42 166 LINE",
"51 118 OFFCURVE",
"72 80 OFFCURVE",
"104 52 CURVE",
"145 13 OFFCURVE",
"201 -6 OFFCURVE",
"273 -6 CURVE SMOOTH",
"340 -6 OFFCURVE",
"398 12 OFFCURVE",
"441 53 CURVE SMOOTH",
"476 86 OFFCURVE",
"496 130 OFFCURVE",
"496 177 CURVE SMOOTH",
"496 237 OFFCURVE",
"473 281 OFFCURVE",
"427 310 CURVE SMOOTH",
"390 333 OFFCURVE",
"339 346 OFFCURVE",
"258 353 CURVE SMOOTH",
"222 356 OFFCURVE",
"185 362 OFFCURVE",
"157 381 CURVE SMOOTH",
"129 400 OFFCURVE",
"110 431 OFFCURVE",
"110 483 CURVE SMOOTH",
"110 506 OFFCURVE",
"114 549 OFFCURVE",
"146 582 CURVE SMOOTH",
"174 610 OFFCURVE",
"218 621 OFFCURVE",
"271 621 CURVE SMOOTH",
"339 621 OFFCURVE",
"388 598 OFFCURVE",
"419 553 CURVE SMOOTH",
"432 534 OFFCURVE",
"440 512 OFFCURVE",
"444 489 CURVE",
"491 489 LINE"
);
}
);
width = 536;
}
);
note = S;
unicode = 0053;
},
{
glyphname = T;
lastChange = "2018-04-11 01:44:19 +0000";
layers = (
{
anchors = (
{
name = bottom;
position = "{245, 0}";
},
{
name = center;
position = "{245, 333}";
},
{
name = top;
position = "{245, 665}";
}
);
layerId = "06F59E53-88A9-464B-8828-77AFB389ECED";
paths = (
{
closed = 1;
nodes = (
"450 665 LINE",
"40 665 LINE",
"40 621 LINE",
"222 621 LINE",
"222 0 LINE",
"268 0 LINE",
"268 621 LINE",
"450 621 LINE"
);
}
);
width = 490;
}
);
note = T;
unicode = 0054;
},
{
glyphname = U;
lastChange = "2018-03-22 21:17:39 +0000";
layers = (
{
anchors = (
{
name = bottom;
position = "{282, 0}";
},
{
name = ogonek;
position = "{508, 10}";
},
{
name = top;
position = "{282, 665}";
},
{
name = topright;
position = "{544, 665}";
}
);
layerId = "06F59E53-88A9-464B-8828-77AFB389ECED";
paths = (
{
closed = 1;
nodes = (
"346 -7 OFFCURVE",
"404 19 OFFCURVE",
"446 60 CURVE SMOOTH",
"488 101 OFFCURVE",
"514 158 OFFCURVE",
"514 221 CURVE SMOOTH",
"514 663 LINE",
"469 663 LINE",
"469 221 LINE SMOOTH",
"469 169 OFFCURVE",
"448 124 OFFCURVE",
"413 90 CURVE SMOOTH",
"377 56 OFFCURVE",
"334 39 OFFCURVE",
"282 39 CURVE SMOOTH",
"230 39 OFFCURVE",
"187 56 OFFCURVE",
"153 90 CURVE SMOOTH",
"119 124 OFFCURVE",
"97 169 OFFCURVE",
"97 221 CURVE SMOOTH",
"97 663 LINE",
"50 663 LINE",
"50 221 LINE SMOOTH",
"50 158 OFFCURVE",
"76 101 OFFCURVE",
"118 60 CURVE SMOOTH",
"160 19 OFFCURVE",
"218 -7 OFFCURVE",
"282 -7 CURVE SMOOTH"
);
}
);
width = 564;
}
);
note = U;
unicode = 0055;
},
{
glyphname = V;
lastChange = "2018-03-20 01:15:58 +0000";
layers = (
{
layerId = "06F59E53-88A9-464B-8828-77AFB389ECED";
paths = (
{
closed = 1;
nodes = (
"538 666 LINE",
"316 36 LINE",
"94 666 LINE",
"45 666 LINE",
"279 1 LINE",
"352 1 LINE",
"586 666 LINE"
);
}
);
width = 631;
}
);
note = V;
unicode = 0056;
},
{
glyphname = W;
lastChange = "2018-03-22 21:17:42 +0000";
layers = (
{
anchors = (
{
name = bottom;
position = "{463, 0}";
},
{
name = top;
position = "{463, 665}";
}
);
layerId = "06F59E53-88A9-464B-8828-77AFB389ECED";
paths = (
{
closed = 1;
nodes = (
"833 666 LINE",
"622 52 LINE",
"490 420 LINE",
"402 666 LINE",
"355 666 LINE",
"441 424 LINE",
"312 52 LINE",
"93 666 LINE",
"45 666 LINE",
"282 0 LINE",
"342 0 LINE",
"465 357 LINE",
"593 0 LINE",
"651 0 LINE",
"881 666 LINE"
);
}
);
width = 926;
}
);
note = W;
unicode = 0057;
},
{
glyphname = X;
lastChange = "2018-03-20 01:15:58 +0000";
layers = (
{
layerId = "06F59E53-88A9-464B-8828-77AFB389ECED";
paths = (
{
closed = 1;
nodes = (
"312 333 LINE",
"520 665 LINE",
"466 665 LINE",
"285 375 LINE",
"104 665 LINE",
"50 665 LINE",
"258 332 LINE",
"50 0 LINE",
"104 0 LINE",
"285 289 LINE",
"465 0 LINE",
"520 0 LINE"
);
}
);
width = 570;
}
);
note = X;
unicode = 0058;
},
{
glyphname = Y;
lastChange = "2018-03-22 21:17:46 +0000";
layers = (
{
anchors = (
{
name = bottom;
position = "{280, 0}";
},
{
name = top;
position = "{280, 665}";
},
{
name = topleft;
position = "{20, 665}";
}
);
layerId = "06F59E53-88A9-464B-8828-77AFB389ECED";
paths = (
{
closed = 1;
nodes = (
"461 665 LINE",
"280 300 LINE",
"99 665 LINE",
"48 665 LINE",
"257 243 LINE",
"257 0 LINE",
"304 0 LINE",
"304 245 LINE",
"512 665 LINE"
);
}
);
width = 560;
}
);
note = Y;
unicode = 0059;
},
{
glyphname = Z;
lastChange = "2018-03-22 21:17:50 +0000";
layers = (
{
anchors = (
{
name = bottom;
position = "{266, 0}";
},
{
name = top;
position = "{266, 665}";
}
);
layerId = "06F59E53-88A9-464B-8828-77AFB389ECED";
paths = (
{
closed = 1;
nodes = (
"492 46 LINE",
"91 46 LINE",
"492 611 LINE",
"492 665 LINE",
"40 665 LINE",
"40 620 LINE",
"442 620 LINE",
"40 52 LINE",
"40 0 LINE",
"492 0 LINE"
);
}
);
width = 532;
}
);
note = Z;
unicode = 005A;
},
{
glyphname = a;
lastChange = "2018-04-11 02:18:44 +0000";
layers = (
{
anchors = (
{
name = bottom;
position = "{298, 0}";
},
{
name = ogonek;
position = "{535, 10}";
},
{
name = top;
position = "{292, 498}";
}
);
layerId = "06F59E53-88A9-464B-8828-77AFB389ECED";
paths = (
{
closed = 1;
nodes = (
"545 486 LINE",
"499 486 LINE",
"499 387 LINE",
"459 462 OFFCURVE",
"386 498 OFFCURVE",
"292 498 CURVE SMOOTH",
"221 498 OFFCURVE",
"160 471 OFFCURVE",
"114 425 CURVE SMOOTH",
"68 379 OFFCURVE",
"40 315 OFFCURVE",
"40 246 CURVE SMOOTH",
"40 177 OFFCURVE",
"68 113 OFFCURVE",
"114 68 CURVE SMOOTH",
"160 23 OFFCURVE",
"221 -5 OFFCURVE",
"292 -5 CURVE SMOOTH",
"379 -5 OFFCURVE",
"447 31 OFFCURVE",
"499 115 CURVE",
"499 0 LINE",
"545 0 LINE"
);
},
{
closed = 1;
nodes = (
"349 453 OFFCURVE",
"401 430 OFFCURVE",
"438 393 CURVE SMOOTH",
"475 356 OFFCURVE",
"498 303 OFFCURVE",
"498 246 CURVE SMOOTH",
"498 189 OFFCURVE",
"474 137 OFFCURVE",
"437 100 CURVE SMOOTH",
"400 63 OFFCURVE",
"348 40 OFFCURVE",
"292 40 CURVE SMOOTH",
"235 40 OFFCURVE",
"182 63 OFFCURVE",
"145 100 CURVE SMOOTH",
"108 137 OFFCURVE",
"85 189 OFFCURVE",
"85 246 CURVE SMOOTH",
"85 303 OFFCURVE",
"108 356 OFFCURVE",
"145 393 CURVE SMOOTH",
"182 430 OFFCURVE",
"235 453 OFFCURVE",
"292 453 CURVE SMOOTH"
);
}
);
width = 595;
}
);
leftKerningGroup = "rounded-low";
note = a;
unicode = 0061;
},
{
glyphname = b;
lastChange = "2018-04-11 02:18:44 +0000";
layers = (
{
layerId = "06F59E53-88A9-464B-8828-77AFB389ECED";
paths = (
{
closed = 1;
nodes = (
"373 -5 OFFCURVE",
"438 24 OFFCURVE",
"483 69 CURVE SMOOTH",
"528 114 OFFCURVE",
"557 177 OFFCURVE",
"557 245 CURVE SMOOTH",
"557 313 OFFCURVE",
"528 376 OFFCURVE",
"483 421 CURVE SMOOTH",
"438 466 OFFCURVE",
"373 495 OFFCURVE",
"304 495 CURVE SMOOTH",
"209 495 OFFCURVE",
"140 464 OFFCURVE",
"94 382 CURVE",
"94 664 LINE",
"50 664 LINE",
"50 0 LINE",
"94 0 LINE",
"94 104 LINE",
"140 21 OFFCURVE",
"216 -5 OFFCURVE",
"304 -5 CURVE SMOOTH"
);
},
{
closed = 1;
nodes = (
"361 449 OFFCURVE",
"413 426 OFFCURVE",
"450 389 CURVE SMOOTH",
"487 352 OFFCURVE",
"511 301 OFFCURVE",
"511 245 CURVE SMOOTH",
"511 189 OFFCURVE",
"487 137 OFFCURVE",
"450 100 CURVE SMOOTH",
"413 63 OFFCURVE",
"361 40 OFFCURVE",
"304 40 CURVE SMOOTH",
"247 40 OFFCURVE",
"194 63 OFFCURVE",
"157 100 CURVE SMOOTH",
"120 137 OFFCURVE",
"96 189 OFFCURVE",
"96 245 CURVE SMOOTH",
"96 301 OFFCURVE",
"120 352 OFFCURVE",
"158 389 CURVE SMOOTH",
"196 426 OFFCURVE",
"247 449 OFFCURVE",
"304 449 CURVE SMOOTH"
);
}
);
width = 597;
}
);
leftKerningGroup = "vert-low";
note = b;
unicode = 0062;
},
{
glyphname = c;
lastChange = "2018-04-11 02:18:44 +0000";
layers = (
{
anchors = (
{
name = bottom;
position = "{262, 0}";
},
{
name = top;
position = "{262, 500}";
}
);
layerId = "06F59E53-88A9-464B-8828-77AFB389ECED";
paths = (
{
closed = 1;
nodes = (
"366 -5 OFFCURVE",
"429 24 OFFCURVE",
"476 72 CURVE",
"435 96 LINE",
"398 61 OFFCURVE",
"349 41 OFFCURVE",
"294 41 CURVE SMOOTH",
"237 41 OFFCURVE",
"186 64 OFFCURVE",
"148 101 CURVE SMOOTH",
"110 138 OFFCURVE",
"86 190 OFFCURVE",
"86 247 CURVE SMOOTH",
"86 304 OFFCURVE",
"110 356 OFFCURVE",
"148 393 CURVE SMOOTH",
"186 430 OFFCURVE",
"237 453 OFFCURVE",
"294 453 CURVE SMOOTH",
"349 453 OFFCURVE",
"398 433 OFFCURVE",
"435 398 CURVE",
"476 422 LINE",
"429 470 OFFCURVE",
"366 499 OFFCURVE",
"294 499 CURVE SMOOTH",
"223 499 OFFCURVE",
"161 470 OFFCURVE",
"115 425 CURVE SMOOTH",
"69 380 OFFCURVE",
"40 316 OFFCURVE",
"40 247 CURVE SMOOTH",
"40 178 OFFCURVE",
"69 114 OFFCURVE",
"115 69 CURVE SMOOTH",
"161 24 OFFCURVE",
"223 -5 OFFCURVE",
"294 -5 CURVE SMOOTH"
);
}
);
width = 524;
}
);
leftKerningGroup = "rounded-low";
note = c;
unicode = 0063;
},
{
glyphname = eth;
lastChange = "2018-04-11 02:13:25 +0000";
layers = (
{
components = (
{
name = six;
transform = "{-1, 0, 0, 1, 484, 0}";
}
);
layerId = "06F59E53-88A9-464B-8828-77AFB389ECED";
paths = (
{
closed = 1;
nodes = (
"183 518 LINE",
"368 571 LINE",
"357 608 LINE",
"172 555 LINE"
);
}
);
width = 484;
}
);
unicode = 00F0;
},
{
glyphname = e;
lastChange = "2018-04-11 02:18:44 +0000";
layers = (
{
anchors = (
{
name = bottom;
position = "{292, 0}";
},
{
name = ogonek;
position = "{371, 10}";
},
{
name = top;
position = "{292, 500}";
}
);
layerId = "06F59E53-88A9-464B-8828-77AFB389ECED";
paths = (
{
closed = 1;
nodes = (
"550 293 OFFCURVE",
"516 379 OFFCURVE",
"470 426 CURVE SMOOTH",
"425 472 OFFCURVE",
"361 499 OFFCURVE",
"292 499 CURVE SMOOTH",
"223 499 OFFCURVE",
"159 472 OFFCURVE",
"114 426 CURVE SMOOTH",
"69 380 OFFCURVE",
"40 316 OFFCURVE",
"40 247 CURVE SMOOTH",
"40 178 OFFCURVE",
"69 114 OFFCURVE",
"114 69 CURVE SMOOTH",
"159 24 OFFCURVE",
"223 -5 OFFCURVE",
"292 -5 CURVE SMOOTH",
"379 -5 OFFCURVE",
"453 38 OFFCURVE",
"500 105 CURVE",
"460 127 LINE",
"421 75 OFFCURVE",
"363 41 OFFCURVE",
"292 41 CURVE SMOOTH",
"241 41 OFFCURVE",
"196 59 OFFCURVE",
"160 91 CURVE SMOOTH",
"124 123 OFFCURVE",
"98 168 OFFCURVE",
"87 224 CURVE",
"544 224 LINE"
);
},
{
closed = 1;
nodes = (
"343 454 OFFCURVE",
"388 436 OFFCURVE",
"424 404 CURVE SMOOTH",
"460 372 OFFCURVE",
"486 327 OFFCURVE",
"497 271 CURVE",
"87 271 LINE",
"98 327 OFFCURVE",
"124 372 OFFCURVE",
"160 404 CURVE SMOOTH",
"196 436 OFFCURVE",
"241 454 OFFCURVE",
"292 454 CURVE SMOOTH"
);
}
);
width = 584;
}
);
leftKerningGroup = "rounded-low";
note = e;
unicode = 0065;
},
{
glyphname = f;
lastChange = "2018-04-11 02:18:44 +0000";
layers = (
{
anchors = (
{
name = bottom;
position = "{158, 0}";
},
{
name = top;
position = "{158, 669}";
}
);
layerId = "06F59E53-88A9-464B-8828-77AFB389ECED";
paths = (
{
closed = 1;
nodes = (
"275 496 LINE",
"156 496 LINE",
"156 572 OFFCURVE",
"217 618 OFFCURVE",
"285 625 CURVE",
"285 670 LINE",
"189 662 OFFCURVE",
"107 601 OFFCURVE",
"107 496 CURVE",
"50 496 LINE",
"50 452 LINE",
"108 452 LINE",
"108 0 LINE",
"156 0 LINE",
"156 452 LINE",
"275 452 LINE"
);
}
);
width = 315;
}
);
leftKerningGroup = "vert-low";
note = f;
unicode = 0066;
},
{
glyphname = g;
lastChange = "2018-04-11 02:18:44 +0000";
layers = (
{
anchors = (
{
name = bottom;
position = "{297, 0}";
},
{
name = top;
position = "{297, 500}";
}
);
layerId = "06F59E53-88A9-464B-8828-77AFB389ECED";
paths = (
{
closed = 1;
nodes = (
"361 -213 OFFCURVE",
"425 -185 OFFCURVE",
"470 -140 CURVE SMOOTH",
"515 -96 OFFCURVE",
"544 -34 OFFCURVE",
"544 34 CURVE SMOOTH",
"544 487 LINE",
"498 487 LINE",
"498 385 LINE",
"458 459 OFFCURVE",
"382 500 OFFCURVE",
"291 500 CURVE SMOOTH",
"222 500 OFFCURVE",
"159 473 OFFCURVE",
"114 430 CURVE SMOOTH",
"68 386 OFFCURVE",
"40 323 OFFCURVE",
"40 256 CURVE SMOOTH",
"40 189 OFFCURVE",
"69 126 OFFCURVE",
"114 79 CURVE SMOOTH",
"159 32 OFFCURVE",
"223 2 OFFCURVE",
"291 2 CURVE SMOOTH",
"373 2 OFFCURVE",
"444 35 OFFCURVE",
"498 115 CURVE",
"498 34 LINE SMOOTH",
"498 -22 OFFCURVE",
"475 -73 OFFCURVE",
"438 -109 CURVE SMOOTH",
"401 -145 OFFCURVE",
"349 -168 OFFCURVE",
"292 -168 CURVE SMOOTH",
"235 -168 OFFCURVE",
"183 -147 OFFCURVE",
"146 -108 CURVE",
"105 -132 LINE",
"152 -181 OFFCURVE",
"217 -213 OFFCURVE",
"292 -213 CURVE SMOOTH"
);
},
{
closed = 1;
nodes = (
"347 454 OFFCURVE",
"399 431 OFFCURVE",
"436 395 CURVE SMOOTH",
"473 359 OFFCURVE",
"497 305 OFFCURVE",
"497 249 CURVE SMOOTH",
"497 193 OFFCURVE",
"473 142 OFFCURVE",
"436 106 CURVE SMOOTH",
"398 69 OFFCURVE",
"347 46 OFFCURVE",
"291 46 CURVE SMOOTH",
"235 46 OFFCURVE",
"182 69 OFFCURVE",
"145 106 CURVE SMOOTH",
"108 143 OFFCURVE",
"84 193 OFFCURVE",
"84 249 CURVE SMOOTH",
"84 305 OFFCURVE",
"108 359 OFFCURVE",
"145 395 CURVE SMOOTH",
"182 431 OFFCURVE",
"235 454 OFFCURVE",
"291 454 CURVE SMOOTH"
);
}
);
width = 594;
}
);
leftKerningGroup = "rounded-low";
note = g;
unicode = 0067;
},
{
glyphname = h;
lastChange = "2018-04-11 02:18:44 +0000";
layers = (
{
anchors = (
{
name = bottom;
position = "{249, 0}";
},
{
name = center;
position = "{195, 571}";
},
{
name = top;
position = "{249, 665}";
}
);
layerId = "06F59E53-88A9-464B-8828-77AFB389ECED";
paths = (
{
closed = 1;
nodes = (
"447 305 LINE SMOOTH",
"447 358 OFFCURVE",
"425 406 OFFCURVE",
"389 442 CURVE SMOOTH",
"353 477 OFFCURVE",
"304 498 OFFCURVE",
"249 498 CURVE SMOOTH",
"198 498 OFFCURVE",
"153 481 OFFCURVE",
"97 417 CURVE",
"97 667 LINE",
"50 667 LINE",
"50 0 LINE",
"97 0 LINE",
"97 305 LINE SMOOTH",
"97 346 OFFCURVE",
"114 383 OFFCURVE",
"142 410 CURVE SMOOTH",
"169 437 OFFCURVE",
"206 453 OFFCURVE",
"249 453 CURVE SMOOTH",
"290 453 OFFCURVE",
"328 437 OFFCURVE",
"356 410 CURVE SMOOTH",
"383 383 OFFCURVE",
"400 346 OFFCURVE",
"400 305 CURVE SMOOTH",
"400 0 LINE",
"447 0 LINE"
);
}
);
width = 497;
}
);
leftKerningGroup = "vert-low";
note = h;
unicode = 0068;
},
{
glyphname = i;
lastChange = "2018-04-11 02:18:44 +0000";
layers = (
{
components = (
{
name = idotless;
transform = "{1, 0, 0, 1, -26, 0}";
}
);
layerId = "06F59E53-88A9-464B-8828-77AFB389ECED";
paths = (
{
closed = 1;
nodes = (
"97 553 OFFCURVE",
"110 566 OFFCURVE",
"110 583 CURVE SMOOTH",
"110 600 OFFCURVE",
"97 613 OFFCURVE",
"79 613 CURVE SMOOTH",
"62 613 OFFCURVE",
"50 600 OFFCURVE",
"50 583 CURVE SMOOTH",
"50 566 OFFCURVE",
"62 553 OFFCURVE",
"79 553 CURVE SMOOTH"
);
}
);
width = 160;
}
);
leftKerningGroup = "vert-low";
note = i;
unicode = 0069;
},
{
glyphname = idotless;
lastChange = "2018-04-16 22:44:55 +0000";
layers = (
{
anchors = (
{
name = bottom;
position = "{105, 0}";
},
{
name = ogonek;
position = "{116, 10}";
},
{
name = top;
position = "{105, 500}";
}
);
layerId = "06F59E53-88A9-464B-8828-77AFB389ECED";
paths = (
{
closed = 1;
nodes = (
"128 500 LINE",
"82 500 LINE",
"82 0 LINE",
"128 0 LINE"
);
}
);
width = 209;
}
);
leftKerningGroup = "vert-low";
unicode = 0131;
},
{
glyphname = j;
lastChange = "2018-04-11 01:55:07 +0000";
layers = (
{
components = (
{
name = jdotless;
}
);
layerId = "06F59E53-88A9-464B-8828-77AFB389ECED";
paths = (
{
closed = 1;
nodes = (
"175 555 OFFCURVE",
"188 568 OFFCURVE",
"188 585 CURVE SMOOTH",
"188 602 OFFCURVE",
"175 615 OFFCURVE",
"157 615 CURVE SMOOTH",
"140 615 OFFCURVE",
"128 602 OFFCURVE",
"128 585 CURVE SMOOTH",
"128 568 OFFCURVE",
"140 555 OFFCURVE",
"157 555 CURVE SMOOTH"
);
}
);
width = 244;
}
);
note = j;
unicode = 006A;
},
{
glyphname = jdotless;
lastChange = "2018-04-11 01:55:07 +0000";
layers = (
{
layerId = "06F59E53-88A9-464B-8828-77AFB389ECED";
paths = (
{
closed = 1;
nodes = (
"-0.156 -213 LINE",
"49.411 -209.112 OFFCURVE",
"94.656 -189.923 OFFCURVE",
"128.608 -157 CURVE SMOOTH",
"159.838 -126.746 OFFCURVE",
"181 -84.422 OFFCURVE",
"181 -37 CURVE SMOOTH",
"181 500 LINE",
"134 500 LINE",
"134 -37 LINE SMOOTH",
"134 -71.317 OFFCURVE",
"120.395 -101.031 OFFCURVE",
"95.384 -125 CURVE SMOOTH",
"71.924 -148.49 OFFCURVE",
"38.015 -164.931 OFFCURVE",
"0.162 -168 CURVE",
"2 -168 LINE",
"2 -213 LINE"
);
}
);
width = 244;
}
);
unicode = 0237;
},
{
glyphname = k;
lastChange = "2018-04-16 22:45:05 +0000";
layers = (
{
layerId = "06F59E53-88A9-464B-8828-77AFB389ECED";
paths = (
{
closed = 1;
nodes = (
"122 284 LINE",
"364 493 LINE",
"293 493 LINE",
"97 323 LINE",
"97 665 LINE",
"50 665 LINE",
"50 0 LINE",
"97 0 LINE",
"97 243 LINE",
"314 0 LINE",
"376 0 LINE"
);
}
);
width = 416;
}
);
leftKerningGroup = "vert-low";
note = k;
unicode = 006B;
},
{
glyphname = l;
lastChange = "2018-04-11 02:18:44 +0000";
layers = (
{
anchors = (
{
name = bottom;
position = "{50, -10}";
},
{
name = center;
position = "{73, 354}";
},
{
name = top;
position = "{73, 665}";
},
{
name = topright;
position = "{126, 500}";
}
);
layerId = "06F59E53-88A9-464B-8828-77AFB389ECED";
paths = (
{
closed = 1;
nodes = (
"96 665 LINE",
"50 665 LINE",
"50 0 LINE",
"96 0 LINE"
);
}
);
width = 146;
}
);
leftKerningGroup = "vert-low";
note = l;
unicode = 006C;
},
{
glyphname = m;
lastChange = "2018-04-11 02:18:44 +0000";
layers = (
{
layerId = "06F59E53-88A9-464B-8828-77AFB389ECED";
paths = (
{
closed = 1;
nodes = (
"715 319 LINE SMOOTH",
"715 370 OFFCURVE",
"695 415 OFFCURVE",
"663 448 CURVE SMOOTH",
"631 480 OFFCURVE",
"587 500 OFFCURVE",
"538 500 CURVE SMOOTH",
"478 500 OFFCURVE",
"426 470 OFFCURVE",
"382 410 CURVE",
"339 470 OFFCURVE",
"287 500 OFFCURVE",
"227 500 CURVE SMOOTH",
"186 500 OFFCURVE",
"126 481 OFFCURVE",
"95 422 CURVE",
"95 486 LINE",
"50 486 LINE",
"50 0 LINE",
"95 0 LINE",
"95 317 LINE SMOOTH",
"95 354 OFFCURVE",
"110 389 OFFCURVE",
"134 414 CURVE SMOOTH",
"158 438 OFFCURVE",
"191 454 OFFCURVE",
"227 454 CURVE SMOOTH",
"263 454 OFFCURVE",
"297 439 OFFCURVE",
"321 415 CURVE SMOOTH",
"345 391 OFFCURVE",
"360 357 OFFCURVE",
"360 321 CURVE SMOOTH",
"360 0 LINE",
"405 0 LINE",
"405 321 LINE SMOOTH",
"405 357 OFFCURVE",
"420 391 OFFCURVE",
"444 415 CURVE SMOOTH",
"468 439 OFFCURVE",
"501 454 OFFCURVE",
"538 454 CURVE SMOOTH",
"574 454 OFFCURVE",
"607 439 OFFCURVE",
"631 415 CURVE SMOOTH",
"655 390 OFFCURVE",
"670 356 OFFCURVE",
"670 319 CURVE SMOOTH",
"670 0 LINE",
"715 0 LINE"
);
}
);
width = 765;
}
);
leftKerningGroup = "angled-low";
note = m;
unicode = 006D;
},
{
glyphname = n;
lastChange = "2018-04-11 02:18:44 +0000";
layers = (
{
anchors = (
{
name = bottom;
position = "{244, 0}";
},
{
name = top;
position = "{244, 500}";
}
);
layerId = "06F59E53-88A9-464B-8828-77AFB389ECED";
paths = (
{
closed = 1;
nodes = (
"447 305 LINE SMOOTH",
"447 358 OFFCURVE",
"425 407 OFFCURVE",
"389 443 CURVE SMOOTH",
"353 478 OFFCURVE",
"303 500 OFFCURVE",
"248 500 CURVE SMOOTH",
"199 500 OFFCURVE",
"137 482 OFFCURVE",
"96 418 CURVE",
"96 486 LINE",
"50 486 LINE",
"50 0 LINE",
"96 0 LINE",
"96 305 LINE SMOOTH",
"96 388 OFFCURVE",
"167 454 OFFCURVE",
"248 454 CURVE SMOOTH",
"289 454 OFFCURVE",
"328 437 OFFCURVE",
"356 410 CURVE SMOOTH",
"383 383 OFFCURVE",
"400 346 OFFCURVE",
"400 305 CURVE SMOOTH",
"400 0 LINE",
"447 0 LINE"
);
}
);
width = 487;
}
);
leftKerningGroup = "angled-low";
note = n;
unicode = 006E;
},
{
glyphname = o;
lastChange = "2018-04-11 02:18:44 +0000";
layers = (
{
anchors = (
{
name = bottom;
position = "{294, 0}";
},
{
name = center;
position = "{294, 250}";
},
{
name = ogonek;
position = "{529, 10}";
},
{
name = top;
position = "{294, 500}";
},
{
name = topright;
position = "{568, 500}";
}
);
layerId = "06F59E53-88A9-464B-8828-77AFB389ECED";
paths = (
{
closed = 1;
nodes = (
"364 -5 OFFCURVE",
"428 24 OFFCURVE",
"474 70 CURVE SMOOTH",
"520 116 OFFCURVE",
"548 179 OFFCURVE",
"548 248 CURVE SMOOTH",
"548 319 OFFCURVE",
"520 383 OFFCURVE",
"474 429 CURVE SMOOTH",
"428 475 OFFCURVE",
"364 503 OFFCURVE",
"293 503 CURVE SMOOTH",
"224 503 OFFCURVE",
"161 475 OFFCURVE",
"115 429 CURVE SMOOTH",
"69 383 OFFCURVE",
"40 319 OFFCURVE",
"40 248 CURVE SMOOTH",
"40 179 OFFCURVE",
"69 116 OFFCURVE",
"115 70 CURVE SMOOTH",
"161 24 OFFCURVE",
"224 -5 OFFCURVE",
"293 -5 CURVE SMOOTH"
);
},
{
closed = 1;
nodes = (
"350 458 OFFCURVE",
"404 435 OFFCURVE",
"441 397 CURVE SMOOTH",
"478 359 OFFCURVE",
"502 305 OFFCURVE",
"502 248 CURVE SMOOTH",
"502 191 OFFCURVE",
"478 139 OFFCURVE",
"441 101 CURVE SMOOTH",
"404 63 OFFCURVE",
"350 39 OFFCURVE",
"293 39 CURVE SMOOTH",
"236 39 OFFCURVE",
"185 63 OFFCURVE",
"147 101 CURVE SMOOTH",
"109 139 OFFCURVE",
"85 191 OFFCURVE",
"85 248 CURVE SMOOTH",
"85 305 OFFCURVE",
"109 359 OFFCURVE",
"147 397 CURVE SMOOTH",
"185 435 OFFCURVE",
"236 458 OFFCURVE",
"293 458 CURVE SMOOTH"
);
}
);
width = 588;
}
);
leftKerningGroup = "rounded-low";
note = o;
unicode = 006F;
},
{
glyphname = thorn;
lastChange = "2018-04-11 02:04:54 +0000";
layers = (
{
layerId = "06F59E53-88A9-464B-8828-77AFB389ECED";
paths = (
{
closed = 1;
nodes = (
"372 6 OFFCURVE",
"436 34 OFFCURVE",
"481 79 CURVE SMOOTH",
"526 123 OFFCURVE",
"555 186 OFFCURVE",
"555 254 CURVE SMOOTH",
"555 322 OFFCURVE",
"526 385 OFFCURVE",
"481 430 CURVE SMOOTH",
"436 474 OFFCURVE",
"372 502 OFFCURVE",
"303 502 CURVE SMOOTH",
"231 502 OFFCURVE",
"140 477 OFFCURVE",
"95 383 CURVE",
"95 665 LINE",
"50 665 LINE",
"50 -160 LINE",
"95 -160 LINE",
"95 113 LINE",
"132 51 OFFCURVE",
"211 6 OFFCURVE",
"303 6 CURVE SMOOTH"
);
},
{
closed = 1;
nodes = (
"360 456 OFFCURVE",
"412 433 OFFCURVE",
"449 397 CURVE SMOOTH",
"486 361 OFFCURVE",
"509 310 OFFCURVE",
"509 254 CURVE SMOOTH",
"509 198 OFFCURVE",
"486 147 OFFCURVE",
"449 110 CURVE SMOOTH",
"412 73 OFFCURVE",
"360 50 OFFCURVE",
"303 50 CURVE SMOOTH",
"247 50 OFFCURVE",
"194 73 OFFCURVE",
"157 110 CURVE SMOOTH",
"120 147 OFFCURVE",
"96 198 OFFCURVE",
"96 254 CURVE SMOOTH",
"96 310 OFFCURVE",
"120 361 OFFCURVE",
"157 397 CURVE SMOOTH",
"194 433 OFFCURVE",
"247 456 OFFCURVE",
"303 456 CURVE SMOOTH"
);
}
);
width = 595;
}
);
unicode = 00FE;
},
{
glyphname = r;
lastChange = "2018-04-11 02:16:36 +0000";
layers = (
{
anchors = (
{
name = bottom;
position = "{194, 0}";
},
{
name = top;
position = "{194, 500}";
}
);
layerId = "06F59E53-88A9-464B-8828-77AFB389ECED";
paths = (
{
closed = 1;
nodes = (
"306 495 OFFCURVE",
"273 504 OFFCURVE",
"236 504 CURVE SMOOTH",
"206 504 OFFCURVE",
"180 498 OFFCURVE",
"157 487 CURVE SMOOTH",
"92 456 OFFCURVE",
"50 397 OFFCURVE",
"50 325 CURVE SMOOTH",
"50 0 LINE",
"97 0 LINE",
"97 325 LINE SMOOTH",
"97 361 OFFCURVE",
"113 395 OFFCURVE",
"138 420 CURVE SMOOTH",
"163 444 OFFCURVE",
"197 459 OFFCURVE",
"236 459 CURVE SMOOTH",
"255 459 OFFCURVE",
"270 455 OFFCURVE",
"285 450 CURVE",
"335 477 LINE"
);
}
);
width = 387;
}
);
note = r;
unicode = 0072;
},
{
glyphname = s;
lastChange = "2018-04-11 02:18:44 +0000";
layers = (
{
anchors = (
{
name = bottom;
position = "{216, 0}";
},
{
name = top;
position = "{216, 500}";
}
);
layerId = "06F59E53-88A9-464B-8828-77AFB389ECED";
paths = (
{
closed = 1;
nodes = (
"375 67 OFFCURVE",
"391 100 OFFCURVE",
"391 137 CURVE SMOOTH",
"391 192 OFFCURVE",
"370 230 OFFCURVE",
"328 251 CURVE SMOOTH",
"291 270 OFFCURVE",
"240 274 OFFCURVE",
"193 274 CURVE SMOOTH",
"175 274 OFFCURVE",
"159 276 OFFCURVE",
"145 281 CURVE",
"116 290 OFFCURVE",
"99 312 OFFCURVE",
"92 337 CURVE",
"84 361 OFFCURVE",
"87 379 OFFCURVE",
"94 399 CURVE SMOOTH",
"102 424 OFFCURVE",
"122 440 OFFCURVE",
"144 449 CURVE SMOOTH",
"166 458 OFFCURVE",
"193 461 OFFCURVE",
"217 461 CURVE SMOOTH",
"264 460 OFFCURVE",
"301 445 OFFCURVE",
"322 413 CURVE SMOOTH",
"328 404 OFFCURVE",
"332 394 OFFCURVE",
"335 384 CURVE",
"384 384 LINE",
"379 403 OFFCURVE",
"372 420 OFFCURVE",
"362 436 CURVE",
"351 452 OFFCURVE",
"336 470 OFFCURVE",
"313 483 CURVE SMOOTH",
"289 496 OFFCURVE",
"257 506 OFFCURVE",
"216 506 CURVE SMOOTH",
"164 506 OFFCURVE",
"123 495 OFFCURVE",
"94 474 CURVE SMOOTH",
"35 430 OFFCURVE",
"21 332 OFFCURVE",
"73 273 CURVE SMOOTH",
"92 252 OFFCURVE",
"128 227 OFFCURVE",
"193 227 CURVE SMOOTH",
"240 227 OFFCURVE",
"278 225 OFFCURVE",
"304 213 CURVE SMOOTH",
"330 200 OFFCURVE",
"344 177 OFFCURVE",
"344 137 CURVE SMOOTH",
"344 109 OFFCURVE",
"333 87 OFFCURVE",
"312 70 CURVE SMOOTH",
"269 36 OFFCURVE",
"219 37 OFFCURVE",
"177 45 CURVE SMOOTH",
"135 52 OFFCURVE",
"105 78 OFFCURVE",
"92 115 CURVE",
"43 115 LINE",
"51 84 OFFCURVE",
"66 58 OFFCURVE",
"87 39 CURVE SMOOTH",
"118 11 OFFCURVE",
"163 -5 OFFCURVE",
"218 -5 CURVE SMOOTH",
"270 -5 OFFCURVE",
"315 9 OFFCURVE",
"348 40 CURVE SMOOTH"
);
}
);
width = 431;
}
);
leftKerningGroup = "rounded-low";
note = s;
unicode = 0073;
},
{
glyphname = germandbls;
lastChange = "2018-03-22 21:15:14 +0000";
layers = (
{
layerId = "06F59E53-88A9-464B-8828-77AFB389ECED";
paths = (
{
closed = 1;
nodes = (
"321 0 OFFCURVE",
"367 20 OFFCURVE",
"400 52 CURVE SMOOTH",
"432 84 OFFCURVE",
"453 128 OFFCURVE",
"453 177 CURVE SMOOTH",
"453 244 OFFCURVE",
"417 300 OFFCURVE",
"348 340 CURVE",
"401 384 OFFCURVE",
"427 434 OFFCURVE",
"427 489 CURVE SMOOTH",
"427 538 OFFCURVE",
"406 583 OFFCURVE",
"374 615 CURVE SMOOTH",
"341 647 OFFCURVE",
"294 667 OFFCURVE",
"245 667 CURVE SMOOTH",
"105 666 LINE",
"50 666 LINE",
"50 0 LINE",
"96 0 LINE",
"96 311 LINE",
"270 311 LINE SMOOTH",
"307 311 OFFCURVE",
"342 296 OFFCURVE",
"367 272 CURVE SMOOTH",
"392 248 OFFCURVE",
"407 214 OFFCURVE",
"407 177 CURVE SMOOTH",
"407 141 OFFCURVE",
"392 108 OFFCURVE",
"367 84 CURVE SMOOTH",
"342 60 OFFCURVE",
"307 45 OFFCURVE",
"270 45 CURVE SMOOTH",
"192 45 LINE",
"192 0 LINE",
"270 0 LINE SMOOTH"
);
},
{
closed = 1;
nodes = (
"282 621 OFFCURVE",
"316 606 OFFCURVE",
"341 582 CURVE SMOOTH",
"365 558 OFFCURVE",
"381 525 OFFCURVE",
"381 489 CURVE SMOOTH",
"381 452 OFFCURVE",
"365 418 OFFCURVE",
"341 394 CURVE SMOOTH",
"316 370 OFFCURVE",
"282 355 OFFCURVE",
"245 355 CURVE SMOOTH",
"96 355 LINE",
"96 621 LINE",
"245 621 LINE SMOOTH"
);
}
);
width = 493;
}
);
note = germandbls;
unicode = 00DF;
},
{
glyphname = t;
lastChange = "2018-04-11 02:18:44 +0000";
layers = (
{
anchors = (
{
name = bottom;
position = "{178, -11}";
},
{
name = center;
position = "{158, 593}";
},
{
name = top;
position = "{158, 665}";
},
{
name = topright;
position = "{295, 500}";
}
);
layerId = "06F59E53-88A9-464B-8828-77AFB389ECED";
paths = (
{
closed = 1;
nodes = (
"275 500 LINE",
"181 500 LINE",
"181 665 LINE",
"135 665 LINE",
"135 500 LINE",
"40 500 LINE",
"40 455 LINE",
"135 455 LINE",
"135 0 LINE",
"181 0 LINE",
"181 455 LINE",
"275 455 LINE"
);
}
);
width = 315;
}
);
leftKerningGroup = "vert-low";
note = t;
unicode = 0074;
},
{
glyphname = u;
lastChange = "2018-04-11 02:18:44 +0000";
layers = (
{
anchors = (
{
name = bottom;
position = "{249, 0}";
},
{
name = ogonek;
position = "{447, 10}";
},
{
name = top;
position = "{249, 500}";
},
{
name = topright;
position = "{477, 500}";
}
);
layerId = "06F59E53-88A9-464B-8828-77AFB389ECED";
paths = (
{
closed = 1;
nodes = (
"447 500 LINE",
"401 500 LINE",
"401 191 LINE SMOOTH",
"401 150 OFFCURVE",
"384 113 OFFCURVE",
"356 86 CURVE SMOOTH",
"328 58 OFFCURVE",
"290 41 OFFCURVE",
"249 41 CURVE SMOOTH",
"206 41 OFFCURVE",
"169 58 OFFCURVE",
"142 86 CURVE",
"114 113 OFFCURVE",
"97 150 OFFCURVE",
"97 191 CURVE SMOOTH",
"97 500 LINE",
"50 500 LINE",
"50 191 LINE SMOOTH",
"50 138 OFFCURVE",
"72 89 OFFCURVE",
"108 54 CURVE SMOOTH",
"144 18 OFFCURVE",
"194 -4 OFFCURVE",
"249 -4 CURVE SMOOTH",
"298 -4 OFFCURVE",
"349 10 OFFCURVE",
"401 74 CURVE",
"401 5 LINE",
"447 5 LINE"
);
}
);
width = 497;
}
);
leftKerningGroup = "angled-low";
note = u;
unicode = 0075;
},
{
glyphname = v;
lastChange = "2018-04-11 02:18:44 +0000";
layers = (
{
layerId = "06F59E53-88A9-464B-8828-77AFB389ECED";
paths = (
{
closed = 1;
nodes = (
"452 498 LINE",
"274 51 LINE",
"95 498 LINE",
"46 498 LINE",
"244 0 LINE",
"303 0 LINE",
"501 498 LINE"
);
}
);
width = 547;
}
);
leftKerningGroup = "v-w-low";
note = v;
unicode = 0076;
},
{
glyphname = w;
lastChange = "2018-04-11 02:18:44 +0000";
layers = (
{
anchors = (
{
name = bottom;
position = "{413, 0}";
},
{
name = top;
position = "{413, 500}";
}
);
layerId = "06F59E53-88A9-464B-8828-77AFB389ECED";
paths = (
{
closed = 1;
nodes = (
"732 500 LINE",
"558 51 LINE",
"382 500 LINE",
"334 500 LINE",
"390 356 LINE",
"270 51 LINE",
"95 500 LINE",
"46 500 LINE",
"242 0 LINE",
"299 0 LINE",
"414 295 LINE",
"529 0 LINE",
"586 0 LINE",
"780 500 LINE"
);
}
);
width = 826;
}
);
leftKerningGroup = "v-w-low";
note = w;
unicode = 0077;
},
{
glyphname = x;
lastChange = "2018-04-11 02:18:44 +0000";
layers = (
{
layerId = "06F59E53-88A9-464B-8828-77AFB389ECED";
paths = (
{
closed = 1;
nodes = (
"364 500 LINE",
"235 285 LINE",
"105 500 LINE",
"50 500 LINE",
"209 244 LINE",
"56 0 LINE",
"110 0 LINE",
"235 201 LINE",
"359 0 LINE",
"414 0 LINE",
"261 244 LINE",
"419 500 LINE"
);
}
);
width = 470;
}
);
leftKerningGroup = "v-w-low";
note = x;
unicode = 0078;
},
{
glyphname = y;
lastChange = "2018-04-11 02:18:44 +0000";
layers = (
{
anchors = (
{
name = bottom;
position = "{262, 0}";
},
{
name = top;
position = "{262, 500}";
}
);
layerId = "06F59E53-88A9-464B-8828-77AFB389ECED";
paths = (
{
closed = 1;
nodes = (
"317 -213 OFFCURVE",
"371 -190 OFFCURVE",
"411 -151 CURVE SMOOTH",
"450 -112 OFFCURVE",
"474 -69 OFFCURVE",
"474 -10 CURVE SMOOTH",
"474 500 LINE",
"428 500 LINE",
"428 209 LINE SMOOTH",
"428 162 OFFCURVE",
"409 121 OFFCURVE",
"378 90 CURVE SMOOTH",
"346 58 OFFCURVE",
"304 41 OFFCURVE",
"257 41 CURVE SMOOTH",
"210 41 OFFCURVE",
"167 59 OFFCURVE",
"136 90 CURVE SMOOTH",
"105 121 OFFCURVE",
"86 162 OFFCURVE",
"86 209 CURVE SMOOTH",
"86 500 LINE",
"40 500 LINE",
"40 202 LINE SMOOTH",
"40 146 OFFCURVE",
"65 95 OFFCURVE",
"105 57 CURVE SMOOTH",
"144 20 OFFCURVE",
"198 -3 OFFCURVE",
"257 -3 CURVE SMOOTH",
"316 -3 OFFCURVE",
"367 7 OFFCURVE",
"428 78 CURVE",
"428 -10 LINE SMOOTH",
"428 -57 OFFCURVE",
"409 -88 OFFCURVE",
"378 -119 CURVE SMOOTH",
"346 -150 OFFCURVE",
"304 -168 OFFCURVE",
"257 -168 CURVE SMOOTH",
"202 -168 OFFCURVE",
"154 -144 OFFCURVE",
"123 -104 CURVE",
"82 -127 LINE",
"122 -179 OFFCURVE",
"185 -213 OFFCURVE",
"257 -213 CURVE SMOOTH"
);
}
);
width = 524;
}
);
leftKerningGroup = "angled-low";
note = y;
unicode = 0079;
},
{
glyphname = z;
lastChange = "2018-03-22 21:17:01 +0000";
layers = (
{
anchors = (
{
name = bottom;
position = "{243, 0}";
},
{
name = top;
position = "{243, 500}";
}
);
layerId = "06F59E53-88A9-464B-8828-77AFB389ECED";
paths = (
{
closed = 1;
nodes = (
"445 45 LINE",
"97 45 LINE",
"445 441 LINE",
"445 496 LINE",
"40 496 LINE",
"40 450 LINE",
"390 450 LINE",
"40 54 LINE",
"40 0 LINE",
"445 0 LINE"
);
}
);
width = 485;
}
);
note = z;
unicode = 007A;
},
{
glyphname = zero;
lastChange = "2018-03-20 01:15:58 +0000";
layers = (
{
layerId = "06F59E53-88A9-464B-8828-77AFB389ECED";
paths = (
{
closed = 1;
nodes = (
"325 -5 OFFCURVE",
"373 16 OFFCURVE",
"408 50 CURVE SMOOTH",
"443 84 OFFCURVE",
"464 130 OFFCURVE",
"464 182 CURVE SMOOTH",
"464 483 LINE SMOOTH",
"464 535 OFFCURVE",
"443 582 OFFCURVE",
"408 616 CURVE SMOOTH",
"373 650 OFFCURVE",
"325 670 OFFCURVE",
"272 670 CURVE SMOOTH",
"232 670 LINE SMOOTH",
"180 670 OFFCURVE",
"132 649 OFFCURVE",
"97 615 CURVE SMOOTH",
"61 581 OFFCURVE",
"40 534 OFFCURVE",
"40 483 CURVE SMOOTH",
"40 182 LINE SMOOTH",
"40 131 OFFCURVE",
"61 85 OFFCURVE",
"97 51 CURVE SMOOTH",
"132 17 OFFCURVE",
"180 -5 OFFCURVE",
"232 -5 CURVE SMOOTH",
"272 -5 LINE SMOOTH"
);
},
{
closed = 1;
nodes = (
"418 105 OFFCURVE",
"355 40 OFFCURVE",
"272 40 CURVE SMOOTH",
"232 40 LINE SMOOTH",
"193 40 OFFCURVE",
"158 54 OFFCURVE",
"129 82 CURVE SMOOTH",
"101 109 OFFCURVE",
"86 145 OFFCURVE",
"86 182 CURVE SMOOTH",
"86 483 LINE SMOOTH",
"86 520 OFFCURVE",
"101 556 OFFCURVE",
"129 583 CURVE SMOOTH",
"158 611 OFFCURVE",
"193 625 OFFCURVE",
"232 625 CURVE SMOOTH",
"272 625 LINE SMOOTH",
"355 625 OFFCURVE",
"418 560 OFFCURVE",
"418 483 CURVE SMOOTH",
"418 182 LINE SMOOTH"
);
}
);
width = 504;
}
);
note = zero;
unicode = 0030;
},
{
glyphname = one;
lastChange = "2018-03-20 01:25:12 +0000";
layers = (
{
layerId = "06F59E53-88A9-464B-8828-77AFB389ECED";
paths = (
{
closed = 1;
nodes = (
"255 665 LINE",
"177 665 LINE",
"59 500 LINE",
"116 500 LINE",
"206 626 LINE",
"206 0 LINE",
"255 0 LINE"
);
}
);
width = 305;
}
);
note = one;
unicode = 0031;
},
{
glyphname = two;
lastChange = "2018-03-20 01:25:32 +0000";
layers = (
{
layerId = "06F59E53-88A9-464B-8828-77AFB389ECED";
paths = (
{
closed = 1;
nodes = (
"45 0 CURVE",
"371 0 LINE",
"371 45 LINE",
"86 45 LINE",
"86 80 OFFCURVE",
"87 110 OFFCURVE",
"94 141 CURVE SMOOTH",
"110 213 OFFCURVE",
"147 259 OFFCURVE",
"210 274 CURVE SMOOTH",
"266 287 OFFCURVE",
"313 309 OFFCURVE",
"346 338 CURVE SMOOTH",
"387 375 OFFCURVE",
"407 418 OFFCURVE",
"407 469 CURVE SMOOTH",
"407 522 OFFCURVE",
"384 572 OFFCURVE",
"348 608 CURVE SMOOTH",
"311 643 OFFCURVE",
"261 665 OFFCURVE",
"205 665 CURVE SMOOTH",
"81 665 LINE",
"81 620 LINE",
"205 620 LINE SMOOTH",
"248 620 OFFCURVE",
"287 603 OFFCURVE",
"315 576 CURVE SMOOTH",
"343 548 OFFCURVE",
"360 510 OFFCURVE",
"360 469 CURVE SMOOTH",
"360 418 OFFCURVE",
"333 384 OFFCURVE",
"300 360 CURVE SMOOTH",
"267 336 OFFCURVE",
"227 324 OFFCURVE",
"199 317 CURVE SMOOTH",
"120 298 OFFCURVE",
"68 242 OFFCURVE",
"48 149 CURVE SMOOTH",
"41 114 OFFCURVE",
"40 84 OFFCURVE",
"40 60 CURVE SMOOTH",
"40 39 OFFCURVE",
"41 31 OFFCURVE"
);
}
);
width = 447;
}
);
note = two;
unicode = 0032;
},
{
glyphname = three;
lastChange = "2018-03-20 01:15:58 +0000";
layers = (
{
layerId = "06F59E53-88A9-464B-8828-77AFB389ECED";
paths = (
{
closed = 1;
nodes = (
"240 0 OFFCURVE",
"286 20 OFFCURVE",
"319 52 CURVE SMOOTH",
"352 84 OFFCURVE",
"373 128 OFFCURVE",
"373 177 CURVE SMOOTH",
"373 237 OFFCURVE",
"344 289 OFFCURVE",
"281 332 CURVE",
"344 375 OFFCURVE",
"373 427 OFFCURVE",
"373 487 CURVE SMOOTH",
"373 536 OFFCURVE",
"352 581 OFFCURVE",
"319 613 CURVE SMOOTH",
"286 645 OFFCURVE",
"240 665 OFFCURVE",
"189 665 CURVE SMOOTH",
"40 665 LINE",
"40 619 LINE",
"189 619 LINE SMOOTH",
"226 619 OFFCURVE",
"262 604 OFFCURVE",
"287 580 CURVE SMOOTH",
"311 556 OFFCURVE",
"327 523 OFFCURVE",
"327 487 CURVE SMOOTH",
"327 451 OFFCURVE",
"311 417 OFFCURVE",
"287 393 CURVE SMOOTH",
"262 369 OFFCURVE",
"226 354 OFFCURVE",
"189 354 CURVE SMOOTH",
"142 354 LINE",
"142 310 LINE",
"189 310 LINE SMOOTH",
"226 310 OFFCURVE",
"262 295 OFFCURVE",
"287 271 CURVE SMOOTH",
"311 247 OFFCURVE",
"327 213 OFFCURVE",
"327 177 CURVE SMOOTH",
"327 140 OFFCURVE",
"311 107 OFFCURVE",
"287 83 CURVE SMOOTH",
"262 59 OFFCURVE",
"226 45 OFFCURVE",
"189 45 CURVE SMOOTH",
"40 45 LINE",
"40 0 LINE",
"189 0 LINE SMOOTH"
);
}
);
width = 413;
}
);
note = three;
unicode = 0033;
},
{
glyphname = four;
lastChange = "2018-03-20 01:15:58 +0000";
layers = (
{
layerId = "06F59E53-88A9-464B-8828-77AFB389ECED";
paths = (
{
closed = 1;
nodes = (
"464 227 LINE",
"369 227 LINE",
"369 336 LINE",
"325 336 LINE",
"325 227 LINE",
"113 227 LINE",
"303 664 LINE",
"253 664 LINE",
"47 182 LINE",
"325 182 LINE",
"325 -1 LINE",
"369 -1 LINE",
"369 182 LINE",
"464 182 LINE"
);
}
);
width = 504;
}
);
note = four;
unicode = 0034;
},
{
glyphname = five;
lastChange = "2018-03-20 01:15:58 +0000";
layers = (
{
layerId = "06F59E53-88A9-464B-8828-77AFB389ECED";
paths = (
{
closed = 1;
nodes = (
"269 0 OFFCURVE",
"319 22 OFFCURVE",
"356 58 CURVE SMOOTH",
"392 93 OFFCURVE",
"415 141 OFFCURVE",
"415 196 CURVE SMOOTH",
"415 249 OFFCURVE",
"392 299 OFFCURVE",
"356 335 CURVE SMOOTH",
"319 370 OFFCURVE",
"269 392 OFFCURVE",
"213 392 CURVE SMOOTH",
"97 392 LINE",
"97 620 LINE",
"379 620 LINE",
"379 665 LINE",
"50 665 LINE",
"50 347 LINE",
"213 347 LINE SMOOTH",
"256 347 OFFCURVE",
"295 330 OFFCURVE",
"323 303 CURVE SMOOTH",
"351 275 OFFCURVE",
"369 237 OFFCURVE",
"369 196 CURVE SMOOTH",
"369 155 OFFCURVE",
"351 117 OFFCURVE",
"323 90 CURVE SMOOTH",
"295 62 OFFCURVE",
"256 45 OFFCURVE",
"213 45 CURVE SMOOTH",
"55 45 LINE",
"55 0 LINE",
"213 0 LINE SMOOTH"
);
}
);
width = 465;
}
);
note = five;
unicode = 0035;
},
{
glyphname = six;
lastChange = "2018-03-20 01:15:58 +0000";
layers = (
{
layerId = "06F59E53-88A9-464B-8828-77AFB389ECED";
paths = (
{
closed = 1;
nodes = (
"298 -4 OFFCURVE",
"349 18 OFFCURVE",
"385 54 CURVE SMOOTH",
"421 90 OFFCURVE",
"444 138 OFFCURVE",
"444 193 CURVE SMOOTH",
"444 248 OFFCURVE",
"421 297 OFFCURVE",
"385 333 CURVE SMOOTH",
"349 369 OFFCURVE",
"298 391 OFFCURVE",
"242 391 CURVE SMOOTH",
"219 391 OFFCURVE",
"199 387 OFFCURVE",
"151 370 CURVE",
"279 665 LINE",
"229 665 LINE",
"57 274 LINE SMOOTH",
"46 249 OFFCURVE",
"40 224 OFFCURVE",
"40 193 CURVE SMOOTH",
"40 138 OFFCURVE",
"63 90 OFFCURVE",
"99 54 CURVE SMOOTH",
"135 18 OFFCURVE",
"186 -4 OFFCURVE",
"242 -4 CURVE SMOOTH"
);
},
{
closed = 1;
nodes = (
"285 345 OFFCURVE",
"324 328 OFFCURVE",
"352 301 CURVE SMOOTH",
"380 273 OFFCURVE",
"398 236 OFFCURVE",
"398 193 CURVE SMOOTH",
"398 150 OFFCURVE",
"380 113 OFFCURVE",
"352 86 CURVE SMOOTH",
"324 59 OFFCURVE",
"285 42 OFFCURVE",
"242 42 CURVE SMOOTH",
"198 42 OFFCURVE",
"159 59 OFFCURVE",
"131 86 CURVE SMOOTH",
"103 113 OFFCURVE",
"86 150 OFFCURVE",
"86 193 CURVE SMOOTH",
"86 236 OFFCURVE",
"103 273 OFFCURVE",
"131 301 CURVE SMOOTH",
"159 328 OFFCURVE",
"198 345 OFFCURVE",
"242 345 CURVE SMOOTH"
);
}
);
width = 484;
}
);
note = six;
unicode = 0036;
},
{
glyphname = seven;
lastChange = "2018-03-20 01:15:58 +0000";
layers = (
{
layerId = "06F59E53-88A9-464B-8828-77AFB389ECED";
paths = (
{
closed = 1;
nodes = (
"40 665 LINE",
"40 619 LINE",
"316 619 LINE",
"177 0 LINE",
"225 0 LINE",
"375 665 LINE"
);
}
);
width = 428;
}
);
note = seven;
unicode = 0037;
},
{
glyphname = eight;
lastChange = "2018-03-20 01:26:56 +0000";
layers = (
{
layerId = "06F59E53-88A9-464B-8828-77AFB389ECED";
paths = (
{
closed = 1;
nodes = (
"370 32 OFFCURVE",
"406 72 OFFCURVE",
"425 118 CURVE SMOOTH",
"444 164 OFFCURVE",
"443 218 OFFCURVE",
"422 267 CURVE SMOOTH",
"406 304 OFFCURVE",
"379 333 OFFCURVE",
"330 362 CURVE",
"402 419 OFFCURVE",
"422 495 OFFCURVE",
"391 563 CURVE SMOOTH",
"364 623 OFFCURVE",
"303 660 OFFCURVE",
"239 660 CURVE SMOOTH",
"216 660 OFFCURVE",
"194 656 OFFCURVE",
"173 647 CURVE SMOOTH",
"152 638 OFFCURVE",
"135 625 OFFCURVE",
"120 610 CURVE SMOOTH",
"90 579 OFFCURVE",
"74 540 OFFCURVE",
"74 497 CURVE SMOOTH",
"74 476 OFFCURVE",
"79 455 OFFCURVE",
"88 434 CURVE SMOOTH",
"99 410 OFFCURVE",
"115 390 OFFCURVE",
"148 362 CURVE",
"100 333 OFFCURVE",
"67 292 OFFCURVE",
"51 248 CURVE SMOOTH",
"35 204 OFFCURVE",
"37 155 OFFCURVE",
"57 111 CURVE SMOOTH",
"90 38 OFFCURVE",
"163 -5 OFFCURVE",
"240 -5 CURVE SMOOTH",
"267 -5 OFFCURVE",
"294 0 OFFCURVE",
"319 11 CURVE SMOOTH"
);
},
{
closed = 1;
nodes = (
"364 514 OFFCURVE",
"364 484 OFFCURVE",
"352 455 CURVE SMOOTH",
"340 426 OFFCURVE",
"317 404 OFFCURVE",
"288 391 CURVE",
"250 376 OFFCURVE",
"205 378 OFFCURVE",
"167 406 CURVE SMOOTH",
"134 430 OFFCURVE",
"120 465 OFFCURVE",
"119 496 CURVE SMOOTH",
"118 527 OFFCURVE",
"131 557 OFFCURVE",
"153 580 CURVE SMOOTH",
"175 603 OFFCURVE",
"207 615 OFFCURVE",
"240 615 CURVE SMOOTH",
"287 615 OFFCURVE",
"332 589 OFFCURVE",
"351 545 CURVE SMOOTH"
);
},
{
closed = 1;
nodes = (
"266 356 OFFCURVE",
"332 310 CURVE",
"375 278 OFFCURVE",
"393 230 OFFCURVE",
"394 191 CURVE SMOOTH",
"394 151 OFFCURVE",
"379 114 OFFCURVE",
"351 85 CURVE SMOOTH",
"323 56 OFFCURVE",
"283 39 OFFCURVE",
"240 39 CURVE SMOOTH",
"209 39 OFFCURVE",
"180 47 OFFCURVE",
"155 63 CURVE SMOOTH",
"104 95 OFFCURVE",
"86 147 OFFCURVE",
"86 187 CURVE SMOOTH",
"86 227 OFFCURVE",
"100 264 OFFCURVE",
"128 293 CURVE SMOOTH",
"179 344 OFFCURVE"
);
}
);
width = 479;
}
);
note = eight;
unicode = 0038;
},
{
glyphname = nine;
lastChange = "2018-03-20 01:15:58 +0000";
layers = (
{
layerId = "06F59E53-88A9-464B-8828-77AFB389ECED";
paths = (
{
closed = 1;
nodes = (
"438 416 OFFCURVE",
"444 441 OFFCURVE",
"444 472 CURVE SMOOTH",
"444 525 OFFCURVE",
"421 575 OFFCURVE",
"385 611 CURVE SMOOTH",
"349 647 OFFCURVE",
"298 669 OFFCURVE",
"242 669 CURVE SMOOTH",
"186 669 OFFCURVE",
"135 647 OFFCURVE",
"99 611 CURVE SMOOTH",
"63 575 OFFCURVE",
"40 525 OFFCURVE",
"40 472 CURVE SMOOTH",
"40 417 OFFCURVE",
"63 368 OFFCURVE",
"99 332 CURVE SMOOTH",
"135 296 OFFCURVE",
"186 274 OFFCURVE",
"242 274 CURVE SMOOTH",
"265 274 OFFCURVE",
"285 278 OFFCURVE",
"333 295 CURVE",
"205 0 LINE",
"255 0 LINE",
"427 391 LINE SMOOTH"
);
},
{
closed = 1;
nodes = (
"286 623 OFFCURVE",
"325 606 OFFCURVE",
"353 579 CURVE SMOOTH",
"381 552 OFFCURVE",
"398 513 OFFCURVE",
"398 472 CURVE SMOOTH",
"398 429 OFFCURVE",
"381 392 OFFCURVE",
"353 365 CURVE SMOOTH",
"325 337 OFFCURVE",
"286 320 OFFCURVE",
"242 320 CURVE SMOOTH",
"199 320 OFFCURVE",
"160 337 OFFCURVE",
"132 365 CURVE SMOOTH",
"104 392 OFFCURVE",
"86 429 OFFCURVE",
"86 472 CURVE SMOOTH",
"86 513 OFFCURVE",
"104 552 OFFCURVE",
"132 579 CURVE SMOOTH",
"160 606 OFFCURVE",
"199 623 OFFCURVE",
"242 623 CURVE SMOOTH"
);
}
);
width = 484;
}
);
note = nine;
unicode = 0039;
},
{
glyphname = fraction;
lastChange = "2018-03-22 21:15:33 +0000";
layers = (
{
layerId = "06F59E53-88A9-464B-8828-77AFB389ECED";
paths = (
{
closed = 1;
nodes = (
"417 666 LINE",
"50 0 LINE",
"98 0 LINE",
"465 666 LINE"
);
}
);
width = 515;
}
);
note = fraction;
unicode = 2044;
},
{
glyphname = asterisk;
lastChange = "2018-03-20 01:15:58 +0000";
layers = (
{
layerId = "06F59E53-88A9-464B-8828-77AFB389ECED";
paths = (
{
closed = 1;
nodes = (
"261 480 LINE",
"397 574 LINE",
"371 612 LINE",
"244 523 LINE",
"244 665 LINE",
"198 665 LINE",
"198 523 LINE",
"71 612 LINE",
"45 574 LINE",
"181 480 LINE",
"45 386 LINE",
"71 348 LINE",
"198 437 LINE",
"198 315 LINE",
"244 315 LINE",
"244 437 LINE",
"371 348 LINE",
"397 386 LINE"
);
}
);
width = 442;
}
);
note = asterisk;
unicode = 002A;
},
{
glyphname = backslash;
lastChange = "2018-03-20 01:26:30 +0000";
layers = (
{
layerId = "06F59E53-88A9-464B-8828-77AFB389ECED";
paths = (
{
closed = 1;
nodes = (
"96 666 LINE",
"50 666 LINE",
"415 0 LINE",
"461 0 LINE"
);
}
);
width = 511;
}
);
note = backslash;
unicode = 005C;
},
{
glyphname = periodcentered;
lastChange = "2018-03-22 20:58:18 +0000";
layers = (
{
layerId = "06F59E53-88A9-464B-8828-77AFB389ECED";
paths = (
{
closed = 1;
nodes = (
"97 276 OFFCURVE",
"110 290 OFFCURVE",
"110 306 CURVE SMOOTH",
"110 323 OFFCURVE",
"97 336 OFFCURVE",
"79 336 CURVE SMOOTH",
"63 336 OFFCURVE",
"50 323 OFFCURVE",
"50 306 CURVE SMOOTH",
"50 290 OFFCURVE",
"63 276 OFFCURVE",
"79 276 CURVE SMOOTH"
);
}
);
width = 160;
}
);
note = periodcentered;
unicode = 00B7;
},
{
glyphname = bullet;
lastChange = "2018-03-22 20:58:33 +0000";
layers = (
{
layerId = "06F59E53-88A9-464B-8828-77AFB389ECED";
paths = (
{
closed = 1;
nodes = (
"176 200 OFFCURVE",
"202 211 OFFCURVE",
"220 229 CURVE SMOOTH",
"238 248 OFFCURVE",
"250 272 OFFCURVE",
"250 300 CURVE SMOOTH",
"250 327 OFFCURVE",
"238 352 OFFCURVE",
"220 371 CURVE SMOOTH",
"202 389 OFFCURVE",
"176 400 OFFCURVE",
"149 400 CURVE SMOOTH",
"121 400 OFFCURVE",
"97 389 OFFCURVE",
"79 371 CURVE SMOOTH",
"60 352 OFFCURVE",
"50 327 OFFCURVE",
"50 300 CURVE SMOOTH",
"50 272 OFFCURVE",
"60 248 OFFCURVE",
"79 229 CURVE SMOOTH",
"97 211 OFFCURVE",
"121 200 OFFCURVE",
"149 200 CURVE SMOOTH"
);
}
);
width = 300;
}
);
note = bullet;
unicode = 2022;
},
{
glyphname = colon;
lastChange = "2018-03-22 21:01:17 +0000";
layers = (
{
layerId = "06F59E53-88A9-464B-8828-77AFB389ECED";
paths = (
{
closed = 1;
nodes = (
"97 0 OFFCURVE",
"110 14 OFFCURVE",
"110 30 CURVE SMOOTH",
"110 47 OFFCURVE",
"97 60 OFFCURVE",
"79 60 CURVE SMOOTH",
"63 60 OFFCURVE",
"50 47 OFFCURVE",
"50 30 CURVE SMOOTH",
"50 14 OFFCURVE",
"63 0 OFFCURVE",
"79 0 CURVE SMOOTH"
);
},
{
closed = 1;
nodes = (
"97 344 OFFCURVE",
"110 357 OFFCURVE",
"110 374 CURVE SMOOTH",
"110 390 OFFCURVE",
"97 404 OFFCURVE",
"79 404 CURVE SMOOTH",
"63 404 OFFCURVE",
"50 390 OFFCURVE",
"50 374 CURVE SMOOTH",
"50 357 OFFCURVE",
"63 344 OFFCURVE",
"79 344 CURVE SMOOTH"
);
}
);
width = 160;
}
);
note = colon;
unicode = 003A;
},
{
glyphname = comma;
lastChange = "2018-03-20 01:15:58 +0000";
layers = (
{
layerId = "06F59E53-88A9-464B-8828-77AFB389ECED";
paths = (
{
closed = 1;
nodes = (
"109 107 LINE",
"45 -102 LINE",
"90 -102 LINE",
"165 107 LINE"
);
}
);
width = 221;
}
);
note = comma;
unicode = 002C;
},
{
glyphname = ellipsis;
lastChange = "2018-03-22 20:57:44 +0000";
layers = (
{
layerId = "06F59E53-88A9-464B-8828-77AFB389ECED";
paths = (
{
closed = 1;
nodes = (
"96 0 OFFCURVE",
"110 14 OFFCURVE",
"110 30 CURVE SMOOTH",
"110 47 OFFCURVE",
"96 60 OFFCURVE",
"79 60 CURVE SMOOTH",
"63 60 OFFCURVE",
"50 47 OFFCURVE",
"50 30 CURVE SMOOTH",
"50 14 OFFCURVE",
"63 0 OFFCURVE",
"79 0 CURVE SMOOTH"
);
},
{
closed = 1;
nodes = (
"234 0 OFFCURVE",
"247 14 OFFCURVE",
"247 30 CURVE SMOOTH",
"247 47 OFFCURVE",
"234 60 OFFCURVE",
"217 60 CURVE SMOOTH",
"200 60 OFFCURVE",
"187 47 OFFCURVE",
"187 30 CURVE SMOOTH",
"187 14 OFFCURVE",
"200 0 OFFCURVE",
"217 0 CURVE SMOOTH"
);
},
{
closed = 1;
nodes = (
"366 0 OFFCURVE",
"379 14 OFFCURVE",
"379 30 CURVE SMOOTH",
"379 47 OFFCURVE",
"366 60 OFFCURVE",
"348 60 CURVE SMOOTH",
"332 60 OFFCURVE",
"319 47 OFFCURVE",
"319 30 CURVE SMOOTH",
"319 14 OFFCURVE",
"332 0 OFFCURVE",
"348 0 CURVE SMOOTH"
);
}
);
width = 429;
}
);
note = ellipsis;
unicode = 2026;
},
{
glyphname = exclam;
lastChange = "2018-03-22 20:57:23 +0000";
layers = (
{
layerId = "06F59E53-88A9-464B-8828-77AFB389ECED";
paths = (
{
closed = 1;
nodes = (
"118 665 LINE",
"70 665 LINE",
"70 152 LINE",
"118 152 LINE"
);
},
{
closed = 1;
nodes = (
"109 -1 OFFCURVE",
"123 13 OFFCURVE",
"123 29 CURVE SMOOTH",
"123 45 OFFCURVE",
"109 59 OFFCURVE",
"92 59 CURVE SMOOTH",
"76 59 OFFCURVE",
"63 45 OFFCURVE",
"63 29 CURVE SMOOTH",
"63 13 OFFCURVE",
"76 -1 OFFCURVE",
"92 -1 CURVE SMOOTH"
);
}
);
width = 189;
}
);
note = exclam;
unicode = 0021;
},
{
glyphname = numbersign;
lastChange = "2018-03-20 01:15:58 +0000";
layers = (
{
layerId = "06F59E53-88A9-464B-8828-77AFB389ECED";
paths = (
{
closed = 1;
nodes = (
"715 238 LINE",
"521 238 LINE",
"521 426 LINE",
"715 426 LINE",
"715 471 LINE",
"521 471 LINE",
"521 665 LINE",
"476 665 LINE",
"476 471 LINE",
"288 471 LINE",
"288 665 LINE",
"243 665 LINE",
"243 471 LINE",
"50 471 LINE",
"50 426 LINE",
"243 426 LINE",
"243 238 LINE",
"50 238 LINE",
"50 193 LINE",
"243 193 LINE",
"243 0 LINE",
"288 0 LINE",
"288 193 LINE",
"476 193 LINE",
"476 0 LINE",
"521 0 LINE",
"521 193 LINE",
"715 193 LINE"
);
},
{
closed = 1;
nodes = (
"288 238 LINE",
"288 426 LINE",
"476 426 LINE",
"476 238 LINE"
);
}
);
width = 765;
}
);
note = numbersign;
unicode = 0023;
},
{
glyphname = period;
lastChange = "2018-03-22 20:57:12 +0000";
layers = (
{
layerId = "06F59E53-88A9-464B-8828-77AFB389ECED";
paths = (
{
closed = 1;
nodes = (
"107 -1 OFFCURVE",
"120 13 OFFCURVE",
"120 29 CURVE SMOOTH",
"120 46 OFFCURVE",
"107 59 OFFCURVE",
"89 59 CURVE SMOOTH",
"73 59 OFFCURVE",
"60 46 OFFCURVE",
"60 29 CURVE SMOOTH",
"60 13 OFFCURVE",
"73 -1 OFFCURVE",
"89 -1 CURVE SMOOTH"
);
}
);
width = 180;
}
);
note = period;
unicode = 002E;
},
{
glyphname = question;
lastChange = "2018-03-22 20:58:49 +0000";
layers = (
{
layerId = "06F59E53-88A9-464B-8828-77AFB389ECED";
paths = (
{
closed = 1;
nodes = (
"441 377 OFFCURVE",
"469 433 OFFCURVE",
"469 498 CURVE SMOOTH",
"469 555 OFFCURVE",
"445 609 OFFCURVE",
"406 647 CURVE SMOOTH",
"367 685 OFFCURVE",
"314 708 OFFCURVE",
"255 708 CURVE SMOOTH",
"198 708 OFFCURVE",
"146 686 OFFCURVE",
"107 651 CURVE SMOOTH",
"68 615 OFFCURVE",
"44 566 OFFCURVE",
"40 511 CURVE",
"86 511 LINE",
"90 554 OFFCURVE",
"110 591 OFFCURVE",
"140 619 CURVE SMOOTH",
"170 646 OFFCURVE",
"211 662 OFFCURVE",
"255 662 CURVE SMOOTH",
"300 662 OFFCURVE",
"344 643 OFFCURVE",
"374 614 CURVE SMOOTH",
"404 585 OFFCURVE",
"423 543 OFFCURVE",
"423 498 CURVE SMOOTH",
"423 445 OFFCURVE",
"400 403 OFFCURVE",
"351 363 CURVE SMOOTH",
"250 281 LINE",
"250 163 LINE",
"296 163 LINE",
"296 260 LINE",
"380 328 LINE SMOOTH"
);
},
{
closed = 1;
nodes = (
"290 -1 OFFCURVE",
"304 13 OFFCURVE",
"304 29 CURVE SMOOTH",
"304 45 OFFCURVE",
"290 59 OFFCURVE",
"273 59 CURVE SMOOTH",
"257 59 OFFCURVE",
"244 45 OFFCURVE",
"244 29 CURVE SMOOTH",
"244 13 OFFCURVE",
"257 -1 OFFCURVE",
"273 -1 CURVE SMOOTH"
);
}
);
width = 509;
}
);
note = question;
unicode = 003F;
},
{
glyphname = quotedbl;
lastChange = "2018-03-20 01:15:58 +0000";
layers = (
{
layerId = "06F59E53-88A9-464B-8828-77AFB389ECED";
paths = (
{
closed = 1;
nodes = (
"176 664 LINE",
"182 454 LINE",
"219 454 LINE",
"226 664 LINE"
);
},
{
closed = 1;
nodes = (
"40 664 LINE",
"47 454 LINE",
"84 454 LINE",
"90 664 LINE"
);
}
);
width = 266;
}
);
note = quotedbl;
unicode = 0022;
},
{
glyphname = quotesingle;
lastChange = "2018-03-20 01:15:58 +0000";
layers = (
{
layerId = "06F59E53-88A9-464B-8828-77AFB389ECED";
paths = (
{
closed = 1;
nodes = (
"41 664 LINE",
"49 454 LINE",
"100 454 LINE",
"108 664 LINE"
);
}
);
width = 149;
}
);
note = quotesingle;
unicode = 0027;
},
{
glyphname = semicolon;
lastChange = "2018-03-22 21:01:23 +0000";
layers = (
{
layerId = "06F59E53-88A9-464B-8828-77AFB389ECED";
paths = (
{
closed = 1;
nodes = (
"145 344 OFFCURVE",
"158 357 OFFCURVE",
"158 374 CURVE SMOOTH",
"158 391 OFFCURVE",
"145 404 OFFCURVE",
"127 404 CURVE SMOOTH",
"111 404 OFFCURVE",
"98 391 OFFCURVE",
"98 374 CURVE SMOOTH",
"98 357 OFFCURVE",
"111 344 OFFCURVE",
"127 344 CURVE SMOOTH"
);
},
{
closed = 1;
nodes = (
"98 91 LINE",
"35 -102 LINE",
"79 -102 LINE",
"152 91 LINE"
);
}
);
width = 225;
}
);
note = semicolon;
unicode = 003B;
},
{
glyphname = slash;
lastChange = "2018-03-20 01:15:58 +0000";
layers = (
{
layerId = "06F59E53-88A9-464B-8828-77AFB389ECED";
paths = (
{
closed = 1;
nodes = (
"414 666 LINE",
"49 0 LINE",
"101 0 LINE",
"466 666 LINE"
);
}
);
width = 515;
}
);
note = slash;
unicode = 002F;
},
{
glyphname = underscore;
lastChange = "2018-04-11 01:52:40 +0000";
layers = (
{
layerId = "06F59E53-88A9-464B-8828-77AFB389ECED";
paths = (
{
closed = 1;
nodes = (
"476 -53 LINE",
"40 -53 LINE",
"40 -93 LINE",
"476 -93 LINE"
);
}
);
width = 516;
}
);
note = underscore;
unicode = 005F;
},
{
glyphname = braceleft;
lastChange = "2018-03-20 01:15:58 +0000";
layers = (
{
layerId = "06F59E53-88A9-464B-8828-77AFB389ECED";
paths = (
{
closed = 1;
nodes = (
"297 -80 LINE",
"210 -80 LINE SMOOTH",
"182 -80 OFFCURVE",
"160 -59 OFFCURVE",
"160 -34 CURVE SMOOTH",
"160 113 LINE SMOOTH",
"160 119 OFFCURVE",
"160 127 OFFCURVE",
"160 138 CURVE",
"159 159 OFFCURVE",
"155 187 OFFCURVE",
"147 208 CURVE",
"138 229 OFFCURVE",
"126 239 OFFCURVE",
"110 249 CURVE",
"101 254 OFFCURVE",
"88 260 OFFCURVE",
"71 269 CURVE",
"84 277 OFFCURVE",
"94 283 OFFCURVE",
"100 286 CURVE",
"105 289 OFFCURVE",
"110 291 OFFCURVE",
"113 293 CURVE SMOOTH",
"120 298 OFFCURVE",
"125 302 OFFCURVE",
"129 305 CURVE",
"136 312 OFFCURVE",
"142 321 OFFCURVE",
"147 332 CURVE",
"155 353 OFFCURVE",
"160 381 OFFCURVE",
"160 403 CURVE SMOOTH",
"160 414 OFFCURVE",
"160 422 OFFCURVE",
"160 427 CURVE SMOOTH",
"160 575 LINE SMOOTH",
"160 600 OFFCURVE",
"182 621 OFFCURVE",
"210 621 CURVE SMOOTH",
"297 621 LINE",
"297 665 LINE",
"210 665 LINE SMOOTH",
"183 665 OFFCURVE",
"159 655 OFFCURVE",
"141 639 CURVE SMOOTH",
"123 622 OFFCURVE",
"112 599 OFFCURVE",
"112 575 CURVE SMOOTH",
"112 425 LINE SMOOTH",
"112 388 OFFCURVE",
"106 346 OFFCURVE",
"95 337 CURVE",
"86 326 OFFCURVE",
"67 317 OFFCURVE",
"50 309 CURVE",
"50 232 LINE",
"67 224 OFFCURVE",
"86 215 OFFCURVE",
"95 204 CURVE",
"106 195 OFFCURVE",
"112 153 OFFCURVE",
"112 116 CURVE SMOOTH",
"112 -34 LINE SMOOTH",
"112 -58 OFFCURVE",
"123 -81 OFFCURVE",
"141 -97 CURVE SMOOTH",
"159 -114 OFFCURVE",
"183 -124 OFFCURVE",
"210 -124 CURVE SMOOTH",
"297 -124 LINE"
);
}
);
width = 327;
}
);
note = braceleft;
unicode = 007B;
},
{
glyphname = braceright;
lastChange = "2018-03-20 01:15:58 +0000";
layers = (
{
layerId = "06F59E53-88A9-464B-8828-77AFB389ECED";
paths = (
{
closed = 1;
nodes = (
"261 215 OFFCURVE",
"280 224 OFFCURVE",
"297 232 CURVE",
"297 309 LINE",
"280 317 OFFCURVE",
"261 326 OFFCURVE",
"252 337 CURVE",
"241 346 OFFCURVE",
"235 388 OFFCURVE",
"235 425 CURVE SMOOTH",
"235 575 LINE SMOOTH",
"235 599 OFFCURVE",
"225 622 OFFCURVE",
"207 639 CURVE SMOOTH",
"189 655 OFFCURVE",
"164 665 OFFCURVE",
"137 665 CURVE SMOOTH",
"50 665 LINE",
"50 621 LINE",
"137 621 LINE SMOOTH",
"165 621 OFFCURVE",
"187 600 OFFCURVE",
"187 575 CURVE SMOOTH",
"187 427 LINE SMOOTH",
"187 422 OFFCURVE",
"187 414 OFFCURVE",
"187 403 CURVE SMOOTH",
"187 392 OFFCURVE",
"188 380 OFFCURVE",
"191 367 CURVE",
"195 342 OFFCURVE",
"203 320 OFFCURVE",
"218 305 CURVE",
"220 304 OFFCURVE",
"222 302 OFFCURVE",
"225 300 CURVE",
"230 296 OFFCURVE",
"236 292 OFFCURVE",
"248 286 CURVE",
"253 283 OFFCURVE",
"263 277 OFFCURVE",
"276 269 CURVE",
"259 260 OFFCURVE",
"246 254 OFFCURVE",
"238 249 CURVE",
"229 244 OFFCURVE",
"223 239 OFFCURVE",
"218 235 CURVE",
"203 220 OFFCURVE",
"195 198 OFFCURVE",
"191 173 CURVE SMOOTH",
"187 148 OFFCURVE",
"187 125 OFFCURVE",
"187 113 CURVE SMOOTH",
"187 -34 LINE SMOOTH",
"187 -59 OFFCURVE",
"165 -80 OFFCURVE",
"137 -80 CURVE SMOOTH",
"50 -80 LINE",
"50 -124 LINE",
"137 -124 LINE SMOOTH",
"164 -124 OFFCURVE",
"189 -114 OFFCURVE",
"207 -97 CURVE SMOOTH",
"225 -81 OFFCURVE",
"235 -58 OFFCURVE",
"235 -34 CURVE SMOOTH",
"235 116 LINE SMOOTH",
"235 153 OFFCURVE",
"241 195 OFFCURVE",
"252 204 CURVE"
);
}
);
width = 327;
}
);
note = braceright;
unicode = 007D;
},
{
glyphname = bracketleft;
lastChange = "2018-03-20 01:15:58 +0000";
layers = (
{
layerId = "06F59E53-88A9-464B-8828-77AFB389ECED";
paths = (
{
closed = 1;
nodes = (
"259 -84 LINE",
"98 -84 LINE",
"98 620 LINE",
"259 620 LINE",
"259 664 LINE",
"50 664 LINE",
"50 -128 LINE",
"259 -128 LINE"
);
}
);
width = 289;
}
);
note = bracketleft;
unicode = 005B;
},
{
glyphname = bracketright;
lastChange = "2018-03-20 01:15:58 +0000";
layers = (
{
layerId = "06F59E53-88A9-464B-8828-77AFB389ECED";
paths = (
{
closed = 1;
nodes = (
"259 664 LINE",
"50 664 LINE",
"50 620 LINE",
"211 620 LINE",
"211 -84 LINE",
"50 -84 LINE",
"50 -128 LINE",
"259 -128 LINE"
);
}
);
width = 289;
}
);
note = bracketright;
unicode = 005D;
},
{
glyphname = parenleft;
lastChange = "2018-03-20 01:15:58 +0000";
layers = (
{
layerId = "06F59E53-88A9-464B-8828-77AFB389ECED";
paths = (
{
closed = 1;
nodes = (
"106 391 OFFCURVE",
"123 528 OFFCURVE",
"156 665 CURVE",
"99 665 LINE",
"67 529 OFFCURVE",
"50 392 OFFCURVE",
"50 252 CURVE SMOOTH",
"50 127 OFFCURVE",
"63 3 OFFCURVE",
"90 -121 CURVE",
"147 -121 LINE",
"119 3 OFFCURVE",
"106 127 OFFCURVE",
"106 252 CURVE SMOOTH"
);
}
);
width = 189;
}
);
note = parenleft;
unicode = 0028;
},
{
glyphname = parenright;
lastChange = "2018-03-20 01:15:58 +0000";
layers = (
{
layerId = "06F59E53-88A9-464B-8828-77AFB389ECED";
paths = (
{
closed = 1;
nodes = (
"146 3 OFFCURVE",
"159 127 OFFCURVE",
"159 252 CURVE SMOOTH",
"159 392 OFFCURVE",
"142 529 OFFCURVE",
"110 665 CURVE",
"53 665 LINE",
"86 528 OFFCURVE",
"103 391 OFFCURVE",
"103 252 CURVE SMOOTH",
"103 127 OFFCURVE",
"90 3 OFFCURVE",
"62 -121 CURVE",
"119 -121 LINE"
);
}
);
width = 189;
}
);
note = parenright;
unicode = 0029;
},
{
glyphname = emdash;
lastChange = "2018-03-20 01:35:45 +0000";
layers = (
{
layerId = "06F59E53-88A9-464B-8828-77AFB389ECED";
paths = (
{
closed = 1;
nodes = (
"665 303 LINE",
"40 303 LINE",
"40 257 LINE",
"665 257 LINE"
);
}
);
width = 705;
}
);
note = emdash;
unicode = 2014;
},
{
glyphname = endash;
lastChange = "2018-03-20 01:35:37 +0000";
layers = (
{
layerId = "06F59E53-88A9-464B-8828-77AFB389ECED";
paths = (
{
closed = 1;
nodes = (
"510 303 LINE",
"40 303 LINE",
"40 257 LINE",
"510 257 LINE"
);
}
);
width = 550;
}
);
note = endash;
unicode = 2013;
},
{
glyphname = hyphen;
lastChange = "2018-03-20 01:35:28 +0000";
layers = (
{
layerId = "06F59E53-88A9-464B-8828-77AFB389ECED";
paths = (
{
closed = 1;
nodes = (
"392 303 LINE",
"40 303 LINE",
"40 257 LINE",
"392 257 LINE"
);
}
);
width = 432;
}
);
note = hyphen;
unicode = 002D;
},
{
glyphname = guillemotleft;
lastChange = "2018-03-20 01:15:58 +0000";
layers = (
{
layerId = "06F59E53-88A9-464B-8828-77AFB389ECED";
paths = (
{
closed = 1;
nodes = (
"319 280 LINE",
"494 471 LINE",
"431 471 LINE",
"255 278 LINE",
"441 87 LINE",
"506 87 LINE"
);
},
{
closed = 1;
nodes = (
"109 280 LINE",
"283 471 LINE",
"221 471 LINE",
"45 278 LINE",
"231 87 LINE",
"295 87 LINE"
);
}
);
width = 564;
}
);
note = guillemotleft;
unicode = 00AB;
},
{
glyphname = guillemotright;
lastChange = "2018-03-20 01:15:58 +0000";
layers = (
{
layerId = "06F59E53-88A9-464B-8828-77AFB389ECED";
paths = (
{
closed = 1;
nodes = (
"343 471 LINE",
"281 471 LINE",
"455 280 LINE",
"269 87 LINE",
"333 87 LINE",
"519 278 LINE"
);
},
{
closed = 1;
nodes = (
"133 471 LINE",
"70 471 LINE",
"245 280 LINE",
"58 87 LINE",
"123 87 LINE",
"309 278 LINE"
);
}
);
width = 564;
}
);
note = guillemotright;
unicode = 00BB;
},
{
glyphname = guilsinglleft;
lastChange = "2018-03-20 01:15:58 +0000";
layers = (
{
layerId = "06F59E53-88A9-464B-8828-77AFB389ECED";
paths = (
{
closed = 1;
nodes = (
"111 280 LINE",
"294 471 LINE",
"228 471 LINE",
"45 278 LINE",
"239 87 LINE",
"306 87 LINE"
);
}
);
width = 365;
}
);
note = guilsinglleft;
unicode = 2039;
},
{
glyphname = guilsinglright;
lastChange = "2018-03-20 01:15:58 +0000";
layers = (
{
layerId = "06F59E53-88A9-464B-8828-77AFB389ECED";
paths = (
{
closed = 1;
nodes = (
"137 471 LINE",
"71 471 LINE",
"254 280 LINE",
"59 87 LINE",
"126 87 LINE",
"320 278 LINE"
);
}
);
width = 365;
}
);
note = guilsinglright;
unicode = 203A;
},
{
glyphname = quotedblbase;
lastChange = "2018-03-20 01:15:58 +0000";
layers = (
{
layerId = "06F59E53-88A9-464B-8828-77AFB389ECED";
paths = (
{
closed = 1;
nodes = (
"260 107 LINE",
"203 -102 LINE",
"243 -102 LINE",
"310 107 LINE"
);
},
{
closed = 1;
nodes = (
"102 107 LINE",
"44 -102 LINE",
"85 -102 LINE",
"151 107 LINE"
);
}
);
width = 355;
}
);
note = quotedblbase;
unicode = 201E;
},
{
glyphname = quotedblleft;
lastChange = "2018-03-20 01:15:58 +0000";
layers = (
{
layerId = "06F59E53-88A9-464B-8828-77AFB389ECED";
paths = (
{
closed = 1;
nodes = (
"244 688 LINE",
"194 688 LINE",
"261 479 LINE",
"302 479 LINE"
);
},
{
closed = 1;
nodes = (
"95 688 LINE",
"45 688 LINE",
"112 479 LINE",
"153 479 LINE"
);
}
);
width = 346;
}
);
note = quotedblleft;
unicode = 201C;
},
{
glyphname = quotedblright;
lastChange = "2018-03-20 01:15:58 +0000";
layers = (
{
layerId = "06F59E53-88A9-464B-8828-77AFB389ECED";
paths = (
{
closed = 1;
nodes = (
"251 688 LINE",
"193 479 LINE",
"234 479 LINE",
"301 688 LINE"
);
},
{
closed = 1;
nodes = (
"102 688 LINE",
"44 479 LINE",
"85 479 LINE",
"152 688 LINE"
);
}
);
width = 346;
}
);
note = quotedblright;
unicode = 201D;
},
{
glyphname = quoteleft;
lastChange = "2018-03-20 01:15:58 +0000";
layers = (
{
layerId = "06F59E53-88A9-464B-8828-77AFB389ECED";
paths = (
{
closed = 1;
nodes = (
"102 688 LINE",
"46 688 LINE",
"121 479 LINE",
"166 479 LINE"
);
}
);
width = 211;
}
);
note = quoteleft;
unicode = 2018;
},
{
glyphname = quoteright;
lastChange = "2018-03-20 01:15:58 +0000";
layers = (
{
layerId = "06F59E53-88A9-464B-8828-77AFB389ECED";
paths = (
{
closed = 1;
nodes = (
"109 688 LINE",
"45 479 LINE",
"90 479 LINE",
"165 688 LINE"
);
}
);
width = 211;
}
);
note = quoteright;
unicode = 2019;
},
{
glyphname = quotesinglbase;
lastChange = "2018-03-20 01:15:58 +0000";
layers = (
{
layerId = "06F59E53-88A9-464B-8828-77AFB389ECED";
paths = (
{
closed = 1;
nodes = (
"109 107 LINE",
"45 -102 LINE",
"90 -102 LINE",
"165 107 LINE"
);
}
);
width = 211;
}
);
note = quotesinglbase;
unicode = 201A;
},
{
glyphname = Euro;
lastChange = "2018-03-20 01:15:58 +0000";
layers = (
{
layerId = "06F59E53-88A9-464B-8828-77AFB389ECED";
paths = (
{
closed = 1;
nodes = (
"494 -7 OFFCURVE",
"523 -3 OFFCURVE",
"554 4 CURVE",
"554 51 LINE",
"526 43 OFFCURVE",
"497 39 OFFCURVE",
"467 39 CURVE SMOOTH",
"342 39 OFFCURVE",
"237 113 OFFCURVE",
"185 238 CURVE",
"410 238 LINE",
"410 284 LINE",
"174 284 LINE",
"171 307 OFFCURVE",
"170 319 OFFCURVE",
"170 331 CURVE SMOOTH",
"170 344 OFFCURVE",
"171 356 OFFCURVE",
"174 379 CURVE",
"410 379 LINE",
"410 425 LINE",
"185 425 LINE",
"237 550 OFFCURVE",
"342 624 OFFCURVE",
"467 624 CURVE SMOOTH",
"497 624 OFFCURVE",
"526 620 OFFCURVE",
"554 612 CURVE",
"554 659 LINE",
"523 666 OFFCURVE",
"494 670 OFFCURVE",
"467 670 CURVE SMOOTH",
"391 670 OFFCURVE",
"320 645 OFFCURVE",
"263 602 CURVE SMOOTH",
"206 559 OFFCURVE",
"161 498 OFFCURVE",
"137 425 CURVE",
"40 425 LINE",
"40 379 LINE",
"127 379 LINE",
"124 354 OFFCURVE",
"124 342 OFFCURVE",
"124 331 CURVE SMOOTH",
"124 320 OFFCURVE",
"124 309 OFFCURVE",
"127 284 CURVE",
"40 284 LINE",
"40 238 LINE",
"137 238 LINE",
"161 165 OFFCURVE",
"205 104 OFFCURVE",
"262 61 CURVE SMOOTH",
"319 17 OFFCURVE",
"391 -7 OFFCURVE",
"467 -7 CURVE SMOOTH"
);
}
);
width = 594;
}
);
note = Euro;
unicode = 20AC;
},
{
glyphname = cent;
lastChange = "2018-03-20 01:15:58 +0000";
layers = (
{
layerId = "06F59E53-88A9-464B-8828-77AFB389ECED";
paths = (
{
closed = 1;
nodes = (
"382 78 OFFCURVE",
"437 105 OFFCURVE",
"477 148 CURVE",
"436 171 LINE",
"397 138 OFFCURVE",
"350 117 OFFCURVE",
"294 117 CURVE SMOOTH",
"237 117 OFFCURVE",
"184 140 OFFCURVE",
"147 177 CURVE SMOOTH",
"110 214 OFFCURVE",
"86 266 OFFCURVE",
"86 322 CURVE SMOOTH",
"86 379 OFFCURVE",
"110 430 OFFCURVE",
"147 467 CURVE SMOOTH",
"184 504 OFFCURVE",
"237 527 OFFCURVE",
"294 527 CURVE SMOOTH",
"350 527 OFFCURVE",
"397 506 OFFCURVE",
"436 473 CURVE",
"478 496 LINE",
"437 539 OFFCURVE",
"382 566 OFFCURVE",
"309 573 CURVE",
"309 624 LINE",
"263 624 LINE",
"263 572 LINE",
"198 560 OFFCURVE",
"142 529 OFFCURVE",
"103 485 CURVE SMOOTH",
"63 441 OFFCURVE",
"40 385 OFFCURVE",
"40 322 CURVE SMOOTH",
"40 259 OFFCURVE",
"63 203 OFFCURVE",
"103 159 CURVE SMOOTH",
"142 115 OFFCURVE",
"198 84 OFFCURVE",
"263 73 CURVE",
"263 22 LINE",
"309 22 LINE",
"309 71 LINE"
);
}
);
width = 525;
}
);
note = cent;
unicode = 00A2;
},
{
glyphname = currency;
lastChange = "2018-03-20 01:15:58 +0000";
layers = (
{
layerId = "06F59E53-88A9-464B-8828-77AFB389ECED";
paths = (
{
closed = 1;
nodes = (
"527 140 OFFCURVE",
"546 193 OFFCURVE",
"546 250 CURVE SMOOTH",
"546 307 OFFCURVE",
"527 361 OFFCURVE",
"488 412 CURVE",
"534 458 LINE",
"501 491 LINE",
"455 445 LINE",
"404 484 OFFCURVE",
"350 503 OFFCURVE",
"293 503 CURVE SMOOTH",
"236 503 OFFCURVE",
"182 484 OFFCURVE",
"131 445 CURVE",
"85 491 LINE",
"53 458 LINE",
"99 412 LINE",
"60 361 OFFCURVE",
"40 307 OFFCURVE",
"40 250 CURVE SMOOTH",
"40 194 OFFCURVE",
"60 140 OFFCURVE",
"99 89 CURVE",
"53 43 LINE",
"85 10 LINE",
"131 56 LINE",
"182 17 OFFCURVE",
"236 -2 OFFCURVE",
"293 -2 CURVE SMOOTH",
"350 -2 OFFCURVE",
"404 17 OFFCURVE",
"455 56 CURVE",
"501 10 LINE",
"534 43 LINE",
"488 89 LINE"
);
},
{
closed = 1;
nodes = (
"487 334 OFFCURVE",
"500 294 OFFCURVE",
"500 250 CURVE SMOOTH",
"500 207 OFFCURVE",
"487 167 OFFCURVE",
"464 134 CURVE SMOOTH",
"449 113 OFFCURVE",
"433 94 OFFCURVE",
"410 79 CURVE SMOOTH",
"375 56 OFFCURVE",
"337 43 OFFCURVE",
"293 43 CURVE SMOOTH",
"272 43 OFFCURVE",
"251 46 OFFCURVE",
"232 53 CURVE",
"192 65 OFFCURVE",
"153 91 OFFCURVE",
"122 134 CURVE SMOOTH",
"99 167 OFFCURVE",
"86 207 OFFCURVE",
"86 250 CURVE SMOOTH",
"86 272 OFFCURVE",
"89 293 OFFCURVE",
"96 313 CURVE",
"108 352 OFFCURVE",
"134 391 OFFCURVE",
"177 422 CURVE SMOOTH",
"210 445 OFFCURVE",
"250 458 OFFCURVE",
"293 458 CURVE SMOOTH",
"337 458 OFFCURVE",
"375 445 OFFCURVE",
"410 422 CURVE SMOOTH",
"433 407 OFFCURVE",
"449 388 OFFCURVE",
"464 367 CURVE SMOOTH"
);
}
);
width = 586;
}
);
note = currency;
unicode = 00A4;
},
{
glyphname = dollar;
lastChange = "2018-03-20 01:15:58 +0000";
layers = (
{
layerId = "06F59E53-88A9-464B-8828-77AFB389ECED";
paths = (
{
closed = 1;
nodes = (
"481 92 OFFCURVE",
"500 135 OFFCURVE",
"500 182 CURVE SMOOTH",
"500 241 OFFCURVE",
"477 285 OFFCURVE",
"432 312 CURVE SMOOTH",
"401 331 OFFCURVE",
"366 343 OFFCURVE",
"298 352 CURVE",
"298 620 LINE",
"331 615 OFFCURVE",
"358 608 OFFCURVE",
"377 597 CURVE SMOOTH",
"416 575 OFFCURVE",
"441 531 OFFCURVE",
"449 490 CURVE",
"496 490 LINE",
"489 531 OFFCURVE",
"471 572 OFFCURVE",
"439 603 CURVE SMOOTH",
"407 634 OFFCURVE",
"362 655 OFFCURVE",
"298 662 CURVE",
"298 721 LINE",
"252 721 LINE",
"252 662 LINE",
"191 655 OFFCURVE",
"151 639 OFFCURVE",
"123 612 CURVE SMOOTH",
"91 581 OFFCURVE",
"73 534 OFFCURVE",
"73 483 CURVE SMOOTH",
"73 383 OFFCURVE",
"127 327 OFFCURVE",
"252 310 CURVE",
"252 47 LINE",
"200 55 OFFCURVE",
"167 69 OFFCURVE",
"144 90 CURVE SMOOTH",
"121 112 OFFCURVE",
"106 139 OFFCURVE",
"99 171 CURVE",
"52 171 LINE",
"61 124 OFFCURVE",
"81 86 OFFCURVE",
"112 58 CURVE SMOOTH",
"145 29 OFFCURVE",
"188 11 OFFCURVE",
"252 2 CURVE",
"252 -56 LINE",
"298 -56 LINE",
"298 2 LINE",
"363 9 OFFCURVE",
"410 24 OFFCURVE",
"446 59 CURVE SMOOTH"
);
},
{
closed = 1;
nodes = (
"213 361 OFFCURVE",
"180 371 OFFCURVE",
"156 391 CURVE SMOOTH",
"132 410 OFFCURVE",
"118 439 OFFCURVE",
"118 483 CURVE SMOOTH",
"118 506 OFFCURVE",
"123 548 OFFCURVE",
"155 581 CURVE",
"176 601 OFFCURVE",
"204 611 OFFCURVE",
"252 618 CURVE",
"252 356 LINE"
);
},
{
closed = 1;
nodes = (
"362 298 OFFCURVE",
"400 282 OFFCURVE",
"424 262 CURVE",
"447 241 OFFCURVE",
"454 214 OFFCURVE",
"454 182 CURVE SMOOTH",
"454 109 OFFCURVE",
"397 57 OFFCURVE",
"298 46 CURVE",
"298 307 LINE"
);
}
);
width = 550;
}
);
note = dollar;
unicode = 0024;
},
{
glyphname = sterling;
lastChange = "2018-03-20 01:15:58 +0000";
layers = (
{
layerId = "06F59E53-88A9-464B-8828-77AFB389ECED";
paths = (
{
closed = 1;
nodes = (
"358 46 LINE",
"159 46 LINE",
"159 382 LINE",
"285 382 LINE",
"285 427 LINE",
"159 427 LINE",
"159 512 LINE SMOOTH",
"159 548 OFFCURVE",
"175 581 OFFCURVE",
"200 605 CURVE SMOOTH",
"225 629 OFFCURVE",
"260 644 OFFCURVE",
"299 644 CURVE SMOOTH",
"358 644 LINE",
"358 690 LINE",
"298 690 LINE SMOOTH",
"247 690 OFFCURVE",
"200 670 OFFCURVE",
"167 638 CURVE SMOOTH",
"134 606 OFFCURVE",
"113 561 OFFCURVE",
"113 512 CURVE SMOOTH",
"113 427 LINE",
"55 427 LINE",
"55 382 LINE",
"113 382 LINE",
"113 46 LINE",
"40 46 LINE",
"40 0 LINE",
"358 0 LINE"
);
}
);
width = 398;
}
);
note = sterling;
unicode = 00A3;
},
{
glyphname = yen;
lastChange = "2018-03-20 01:15:58 +0000";
layers = (
{
layerId = "06F59E53-88A9-464B-8828-77AFB389ECED";
paths = (
{
closed = 1;
nodes = (
"463 668 LINE",
"281 302 LINE",
"100 668 LINE",
"48 668 LINE",
"229 302 LINE",
"96 302 LINE",
"96 257 LINE",
"252 257 LINE",
"258 245 LINE",
"258 161 LINE",
"96 161 LINE",
"96 115 LINE",
"258 115 LINE",
"258 0 LINE",
"305 0 LINE",
"305 115 LINE",
"467 115 LINE",
"467 161 LINE",
"305 161 LINE",
"305 257 LINE",
"467 257 LINE",
"467 302 LINE",
"333 302 LINE",
"515 668 LINE"
);
}
);
width = 563;
}
);
note = yen;
unicode = 00A5;
},
{
glyphname = plus;
lastChange = "2018-03-20 01:15:58 +0000";
layers = (
{
layerId = "06F59E53-88A9-464B-8828-77AFB389ECED";
paths = (
{
closed = 1;
nodes = (
"510 303 LINE",
"298 303 LINE",
"298 515 LINE",
"252 515 LINE",
"252 303 LINE",
"40 303 LINE",
"40 257 LINE",
"252 257 LINE",
"252 45 LINE",
"298 45 LINE",
"298 257 LINE",
"510 257 LINE"
);
}
);
width = 550;
}
);
note = plus;
unicode = 002B;
},
{
glyphname = minus;
lastChange = "2018-04-11 01:44:40 +0000";
layers = (
{
layerId = "06F59E53-88A9-464B-8828-77AFB389ECED";
paths = (
{
closed = 1;
nodes = (
"510 311 LINE",
"40 311 LINE",
"40 265 LINE",
"510 265 LINE"
);
}
);
width = 550;
}
);
note = minus;
unicode = 2212;
},
{
glyphname = multiply;
lastChange = "2018-03-20 01:15:58 +0000";
layers = (
{
layerId = "06F59E53-88A9-464B-8828-77AFB389ECED";
paths = (
{
closed = 1;
nodes = (
"263 280 LINE",
"415 432 LINE",
"383 464 LINE",
"231 312 LINE",
"79 465 LINE",
"46 432 LINE",
"198 280 LINE",
"46 128 LINE",
"79 95 LINE",
"231 248 LINE",
"383 96 LINE",
"415 128 LINE"
);
}
);
width = 461;
}
);
note = multiply;
unicode = 00D7;
},
{
glyphname = divide;
lastChange = "2018-03-22 21:03:07 +0000";
layers = (
{
layerId = "06F59E53-88A9-464B-8828-77AFB389ECED";
paths = (
{
closed = 1;
nodes = (
"509 304 LINE",
"40 304 LINE",
"40 258 LINE",
"509 258 LINE"
);
},
{
closed = 1;
nodes = (
"291 115 OFFCURVE",
"305 129 OFFCURVE",
"305 145 CURVE SMOOTH",
"305 162 OFFCURVE",
"291 175 OFFCURVE",
"274 175 CURVE SMOOTH",
"258 175 OFFCURVE",
"245 162 OFFCURVE",
"245 145 CURVE SMOOTH",
"245 129 OFFCURVE",
"258 115 OFFCURVE",
"274 115 CURVE SMOOTH"
);
},
{
closed = 1;
nodes = (
"291 396 OFFCURVE",
"305 410 OFFCURVE",
"305 426 CURVE SMOOTH",
"305 443 OFFCURVE",
"291 456 OFFCURVE",
"274 456 CURVE SMOOTH",
"258 456 OFFCURVE",
"245 443 OFFCURVE",
"245 426 CURVE SMOOTH",
"245 410 OFFCURVE",
"258 396 OFFCURVE",
"274 396 CURVE SMOOTH"
);
}
);
width = 549;
}
);
note = divide;
unicode = 00F7;
},
{
glyphname = equal;
lastChange = "2018-04-11 01:45:06 +0000";
layers = (
{
layerId = "06F59E53-88A9-464B-8828-77AFB389ECED";
paths = (
{
closed = 1;
nodes = (
"510 400 LINE",
"40 400 LINE",
"40 354 LINE",
"510 354 LINE"
);
},
{
closed = 1;
nodes = (
"510 210 LINE",
"40 210 LINE",
"40 164 LINE",
"510 164 LINE"
);
}
);
width = 550;
}
);
note = equal;
unicode = 003D;
},
{
glyphname = notequal;
lastChange = "2018-03-20 01:15:58 +0000";
layers = (
{
layerId = "06F59E53-88A9-464B-8828-77AFB389ECED";
paths = (
{
closed = 1;
nodes = (
"510 213 LINE",
"257 213 LINE",
"364 345 LINE",
"510 345 LINE",
"510 392 LINE",
"402 392 LINE",
"471 478 LINE",
"435 507 LINE",
"341 392 LINE",
"40 392 LINE",
"40 345 LINE",
"304 345 LINE",
"197 213 LINE",
"40 213 LINE",
"40 167 LINE",
"159 167 LINE",
"79 69 LINE",
"116 39 LINE",
"219 167 LINE",
"510 167 LINE"
);
}
);
width = 550;
}
);
note = notequal;
unicode = 2260;
},
{
glyphname = greater;
lastChange = "2018-03-20 01:15:58 +0000";
layers = (
{
layerId = "06F59E53-88A9-464B-8828-77AFB389ECED";
paths = (
{
closed = 1;
nodes = (
"628 295 LINE",
"40 544 LINE",
"40 495 LINE",
"568 271 LINE",
"40 56 LINE",
"40 6 LINE",
"628 246 LINE"
);
}
);
width = 668;
}
);
note = greater;
unicode = 003E;
},
{
glyphname = less;
lastChange = "2018-03-20 01:15:58 +0000";
layers = (
{
layerId = "06F59E53-88A9-464B-8828-77AFB389ECED";
paths = (
{
closed = 1;
nodes = (
"628 56 LINE",
"100 271 LINE",
"628 495 LINE",
"628 544 LINE",
"40 295 LINE",
"40 246 LINE",
"628 6 LINE"
);
}
);
width = 668;
}
);
note = less;
unicode = 003C;
},
{
glyphname = greaterequal;
lastChange = "2018-03-20 01:15:58 +0000";
layers = (
{
layerId = "06F59E53-88A9-464B-8828-77AFB389ECED";
paths = (
{
closed = 1;
nodes = (
"40 504 LINE",
"40 456 LINE",
"496 315 LINE",
"40 182 LINE",
"40 134 LINE",
"572 289 LINE",
"573 339 LINE"
);
},
{
closed = 1;
nodes = (
"563 46 LINE",
"40 46 LINE",
"40 0 LINE",
"563 0 LINE"
);
}
);
width = 613;
}
);
note = greaterequal;
unicode = 2265;
},
{
glyphname = lessequal;
lastChange = "2018-03-20 01:15:58 +0000";
layers = (
{
layerId = "06F59E53-88A9-464B-8828-77AFB389ECED";
paths = (
{
closed = 1;
nodes = (
"573 182 LINE",
"117 315 LINE",
"573 456 LINE",
"573 504 LINE",
"40 339 LINE",
"41 289 LINE",
"573 134 LINE"
);
},
{
closed = 1;
nodes = (
"573 46 LINE",
"50 46 LINE",
"50 0 LINE",
"573 0 LINE"
);
}
);
width = 613;
}
);
note = lessequal;
unicode = 2264;
},
{
glyphname = plusminus;
lastChange = "2018-04-11 01:45:28 +0000";
layers = (
{
layerId = "06F59E53-88A9-464B-8828-77AFB389ECED";
paths = (
{
closed = 1;
nodes = (
"510 373 LINE",
"298 373 LINE",
"298 506 LINE",
"252 506 LINE",
"252 373 LINE",
"40 373 LINE",
"40 327 LINE",
"252 327 LINE",
"252 194 LINE",
"298 194 LINE",
"298 327 LINE",
"510 327 LINE"
);
},
{
closed = 1;
nodes = (
"510 122 LINE",
"40 122 LINE",
"40 76 LINE",
"510 76 LINE"
);
}
);
width = 550;
}
);
note = plusminus;
unicode = 00B1;
},
{
glyphname = approxequal;
lastChange = "2018-03-20 01:15:58 +0000";
layers = (
{
layerId = "06F59E53-88A9-464B-8828-77AFB389ECED";
paths = (
{
closed = 1;
nodes = (
"466 301 OFFCURVE",
"508 327 OFFCURVE",
"544 390 CURVE",
"504 414 LINE",
"480 374 OFFCURVE",
"454 347 OFFCURVE",
"423 348 CURVE SMOOTH",
"378 348 OFFCURVE",
"344 368 OFFCURVE",
"305 389 CURVE SMOOTH",
"265 412 OFFCURVE",
"228 432 OFFCURVE",
"180 432 CURVE SMOOTH",
"177 432 LINE SMOOTH",
"128 432 OFFCURVE",
"81 402 OFFCURVE",
"45 342 CURVE",
"85 318 LINE",
"110 359 OFFCURVE",
"142 383 OFFCURVE",
"178 384 CURVE SMOOTH",
"218 384 OFFCURVE",
"249 366 OFFCURVE",
"284 347 CURVE SMOOTH",
"303 336 OFFCURVE",
"324 325 OFFCURVE",
"347 316 CURVE SMOOTH",
"370 307 OFFCURVE",
"395 301 OFFCURVE",
"423 301 CURVE SMOOTH"
);
},
{
closed = 1;
nodes = (
"468 145 OFFCURVE",
"511 164 OFFCURVE",
"550 224 CURVE",
"512 247 LINE",
"489 204 OFFCURVE",
"453 192 OFFCURVE",
"426 192 CURVE SMOOTH",
"402 192 OFFCURVE",
"386 194 OFFCURVE",
"367 201 CURVE",
"363 202 OFFCURVE",
"359 204 OFFCURVE",
"355 207 CURVE",
"350 209 OFFCURVE",
"345 211 OFFCURVE",
"340 214 CURVE SMOOTH",
"335 217 OFFCURVE",
"329 220 OFFCURVE",
"324 223 CURVE SMOOTH",
"319 226 OFFCURVE",
"312 230 OFFCURVE",
"305 233 CURVE",
"265 256 OFFCURVE",
"228 277 OFFCURVE",
"180 277 CURVE SMOOTH",
"177 277 LINE SMOOTH",
"122 277 OFFCURVE",
"87 238 OFFCURVE",
"50 174 CURVE",
"90 149 LINE",
"113 190 OFFCURVE",
"139 228 OFFCURVE",
"178 228 CURVE SMOOTH",
"218 229 OFFCURVE",
"249 211 OFFCURVE",
"284 192 CURVE SMOOTH",
"303 181 OFFCURVE",
"324 169 OFFCURVE",
"347 160 CURVE SMOOTH",
"370 151 OFFCURVE",
"395 145 OFFCURVE",
"423 145 CURVE SMOOTH"
);
}
);
width = 595;
}
);
note = approxequal;
unicode = 2248;
},
{
glyphname = asciitilde;
lastChange = "2018-03-20 01:15:58 +0000";
layers = (
{
layerId = "06F59E53-88A9-464B-8828-77AFB389ECED";
paths = (
{
closed = 1;
nodes = (
"466 290 OFFCURVE",
"508 321 OFFCURVE",
"544 389 CURVE",
"505 415 LINE",
"480 371 OFFCURVE",
"454 341 OFFCURVE",
"423 342 CURVE SMOOTH",
"379 343 OFFCURVE",
"345 364 OFFCURVE",
"306 387 CURVE SMOOTH",
"265 412 OFFCURVE",
"228 435 OFFCURVE",
"180 435 CURVE SMOOTH",
"177 435 LINE SMOOTH",
"126 435 OFFCURVE",
"82 402 OFFCURVE",
"45 336 CURVE",
"85 309 LINE",
"112 356 OFFCURVE",
"142 381 OFFCURVE",
"178 382 CURVE SMOOTH",
"218 383 OFFCURVE",
"249 362 OFFCURVE",
"284 341 CURVE SMOOTH",
"303 330 OFFCURVE",
"324 318 OFFCURVE",
"347 307 CURVE SMOOTH",
"370 296 OFFCURVE",
"395 290 OFFCURVE",
"423 290 CURVE SMOOTH"
);
}
);
width = 589;
}
);
note = asciitilde;
unicode = 007E;
},
{
glyphname = logicalnot;
lastChange = "2018-04-11 01:45:47 +0000";
layers = (
{
layerId = "06F59E53-88A9-464B-8828-77AFB389ECED";
paths = (
{
closed = 1;
nodes = (
"541 333 LINE",
"40 332 LINE",
"40 286 LINE",
"496 286 LINE",
"496 110 LINE",
"541 110 LINE"
);
}
);
width = 581;
}
);
note = logicalnot;
unicode = 00AC;
},
{
glyphname = emptyset;
lastChange = "2018-03-22 21:05:05 +0000";
layers = (
{
layerId = "06F59E53-88A9-464B-8828-77AFB389ECED";
paths = (
{
closed = 1;
nodes = (
"465 -2 OFFCURVE",
"549 35 OFFCURVE",
"609 96 CURVE SMOOTH",
"669 156 OFFCURVE",
"707 239 OFFCURVE",
"707 331 CURVE SMOOTH",
"707 448 OFFCURVE",
"647 549 OFFCURVE",
"547 617 CURVE",
"574 666 LINE",
"531 666 LINE",
"514 634 LINE",
"463 657 OFFCURVE",
"420 665 OFFCURVE",
"373 665 CURVE SMOOTH",
"281 665 OFFCURVE",
"198 627 OFFCURVE",
"138 567 CURVE SMOOTH",
"77 507 OFFCURVE",
"40 423 OFFCURVE",
"40 331 CURVE SMOOTH",
"40 214 OFFCURVE",
"99 113 OFFCURVE",
"199 48 CURVE",
"173 0 LINE",
"215 0 LINE",
"231 30 LINE",
"282 7 OFFCURVE",
"326 -2 OFFCURVE",
"373 -2 CURVE SMOOTH"
);
},
{
closed = 1;
nodes = (
"619 515 OFFCURVE",
"671 429 OFFCURVE",
"671 328 CURVE SMOOTH",
"671 247 OFFCURVE",
"638 175 OFFCURVE",
"585 122 CURVE",
"531 68 OFFCURVE",
"459 36 OFFCURVE",
"378 36 CURVE SMOOTH",
"339 36 OFFCURVE",
"302 43 OFFCURVE",
"255 64 CURVE",
"530 577 LINE SMOOTH"
);
},
{
closed = 1;
nodes = (
"410 625 OFFCURVE",
"446 617 OFFCURVE",
"493 597 CURVE",
"216 83 LINE",
"129 146 OFFCURVE",
"79 233 OFFCURVE",
"79 332 CURVE SMOOTH",
"79 413 OFFCURVE",
"111 485 OFFCURVE",
"165 539 CURVE SMOOTH",
"219 593 OFFCURVE",
"291 625 OFFCURVE",
"372 625 CURVE SMOOTH"
);
}
);
width = 747;
}
);
note = emptyset;
unicode = 2205;
},
{
glyphname = infinity;
lastChange = "2018-03-22 21:05:42 +0000";
layers = (
{
layerId = "06F59E53-88A9-464B-8828-77AFB389ECED";
paths = (
{
closed = 1;
nodes = (
"460 193 OFFCURVE",
"492 208 OFFCURVE",
"516 233 CURVE SMOOTH",
"540 257 OFFCURVE",
"554 291 OFFCURVE",
"554 328 CURVE SMOOTH",
"554 365 OFFCURVE",
"540 400 OFFCURVE",
"516 425 CURVE SMOOTH",
"492 449 OFFCURVE",
"460 464 OFFCURVE",
"424 464 CURVE SMOOTH",
"361 464 OFFCURVE",
"333 428 OFFCURVE",
"298 372 CURVE",
"263 424 OFFCURVE",
"233 464 OFFCURVE",
"169 464 CURVE SMOOTH",
"133 464 OFFCURVE",
"101 449 OFFCURVE",
"78 425 CURVE SMOOTH",
"54 400 OFFCURVE",
"40 365 OFFCURVE",
"40 328 CURVE SMOOTH",
"40 291 OFFCURVE",
"54 257 OFFCURVE",
"78 233 CURVE",
"101 208 OFFCURVE",
"133 193 OFFCURVE",
"169 193 CURVE SMOOTH",
"212 193 OFFCURVE",
"250 213 OFFCURVE",
"273 249 CURVE SMOOTH",
"297 286 LINE",
"304 274 OFFCURVE",
"311 262 OFFCURVE",
"318 251 CURVE",
"338 215 OFFCURVE",
"385 193 OFFCURVE",
"424 193 CURVE SMOOTH"
);
},
{
closed = 1;
nodes = (
"447 416 OFFCURVE",
"468 406 OFFCURVE",
"484 390 CURVE SMOOTH",
"499 374 OFFCURVE",
"508 352 OFFCURVE",
"508 328 CURVE SMOOTH",
"508 304 OFFCURVE",
"499 282 OFFCURVE",
"484 266 CURVE SMOOTH",
"468 250 OFFCURVE",
"447 240 OFFCURVE",
"424 240 CURVE SMOOTH",
"375 240 OFFCURVE",
"362 270 OFFCURVE",
"324 329 CURVE",
"357 379 LINE",
"372 402 OFFCURVE",
"397 416 OFFCURVE",
"424 416 CURVE SMOOTH"
);
},
{
closed = 1;
nodes = (
"261 315 OFFCURVE",
"241 283 OFFCURVE",
"238 278 CURVE",
"221 255 OFFCURVE",
"196 240 OFFCURVE",
"169 240 CURVE SMOOTH",
"146 240 OFFCURVE",
"125 250 OFFCURVE",
"110 266 CURVE SMOOTH",
"94 282 OFFCURVE",
"85 304 OFFCURVE",
"85 328 CURVE SMOOTH",
"85 352 OFFCURVE",
"94 374 OFFCURVE",
"110 390 CURVE SMOOTH",
"125 406 OFFCURVE",
"146 416 OFFCURVE",
"169 416 CURVE SMOOTH",
"196 416 OFFCURVE",
"222 402 OFFCURVE",
"237 379 CURVE SMOOTH",
"270 329 LINE"
);
}
);
width = 594;
}
);
note = infinity;
unicode = 221E;
},
{
glyphname = integral;
lastChange = "2018-03-20 01:15:58 +0000";
layers = (
{
layerId = "06F59E53-88A9-464B-8828-77AFB389ECED";
paths = (
{
closed = 1;
nodes = (
"212 595 OFFCURVE",
"226 626 OFFCURVE",
"249 650 CURVE SMOOTH",
"272 673 OFFCURVE",
"303 689 OFFCURVE",
"339 692 CURVE",
"339 737 LINE",
"291 733 OFFCURVE",
"247 713 OFFCURVE",
"216 682 CURVE SMOOTH",
"184 650 OFFCURVE",
"165 607 OFFCURVE",
"165 562 CURVE SMOOTH",
"165 -5 LINE SMOOTH",
"165 -38 OFFCURVE",
"152 -69 OFFCURVE",
"129 -92 CURVE SMOOTH",
"106 -116 OFFCURVE",
"75 -132 OFFCURVE",
"40 -135 CURVE",
"40 -180 LINE",
"88 -176 OFFCURVE",
"131 -156 OFFCURVE",
"162 -124 CURVE SMOOTH",
"193 -93 OFFCURVE",
"212 -52 OFFCURVE",
"212 -5 CURVE SMOOTH",
"212 562 LINE SMOOTH"
);
}
);
width = 379;
}
);
note = integral;
unicode = 222B;
},
{
glyphname = product;
lastChange = "2018-03-20 01:15:58 +0000";
layers = (
{
layerId = "06F59E53-88A9-464B-8828-77AFB389ECED";
paths = (
{
closed = 1;
nodes = (
"537 666 LINE",
"40 666 LINE",
"40 617 LINE",
"160 617 LINE",
"160 1 LINE",
"210 1 LINE",
"210 617 LINE",
"377 617 LINE",
"377 1 LINE",
"426 1 LINE",
"426 617 LINE",
"537 617 LINE"
);
}
);
width = 577;
}
);
note = product;
unicode = 220F;
},
{
glyphname = summation;
lastChange = "2018-03-20 01:15:58 +0000";
layers = (
{
layerId = "06F59E53-88A9-464B-8828-77AFB389ECED";
paths = (
{
closed = 1;
nodes = (
"430 42 LINE",
"89 42 LINE",
"273 331 LINE",
"89 624 LINE",
"430 624 LINE",
"430 670 LINE",
"40 670 LINE",
"40 615 LINE",
"218 332 LINE",
"40 50 LINE",
"40 -4 LINE",
"430 -4 LINE"
);
}
);
width = 470;
}
);
note = summation;
unicode = 2211;
},
{
glyphname = radical;
lastChange = "2018-03-20 01:15:58 +0000";
layers = (
{
layerId = "06F59E53-88A9-464B-8828-77AFB389ECED";
paths = (
{
closed = 1;
nodes = (
"532 666 LINE",
"363 666 LINE",
"179 62 LINE",
"97 251 LINE",
"47 251 LINE",
"156 0 LINE",
"208 0 LINE",
"397 621 LINE",
"532 621 LINE"
);
}
);
width = 572;
}
);
note = radical;
unicode = 221A;
},
{
glyphname = partialdiff;
lastChange = "2018-03-22 21:07:48 +0000";
layers = (
{
layerId = "06F59E53-88A9-464B-8828-77AFB389ECED";
paths = (
{
closed = 1;
nodes = (
"106 613 OFFCURVE",
"109 614 OFFCURVE",
"111 614 CURVE",
"122 617 OFFCURVE",
"133 618 OFFCURVE",
"136 618 CURVE SMOOTH",
"151 618 OFFCURVE",
"166 617 OFFCURVE",
"181 613 CURVE",
"196 608 OFFCURVE",
"209 602 OFFCURVE",
"222 594 CURVE",
"247 577 OFFCURVE",
"260 559 OFFCURVE",
"273 527 CURVE SMOOTH",
"286 494 OFFCURVE",
"300 458 OFFCURVE",
"310 427 CURVE SMOOTH",
"315 411 OFFCURVE",
"318 400 OFFCURVE",
"321 393 CURVE",
"349 314 LINE",
"300 351 OFFCURVE",
"234 357 OFFCURVE",
"176 336 CURVE SMOOTH",
"125 319 OFFCURVE",
"86 285 OFFCURVE",
"62 238 CURVE SMOOTH",
"37 191 OFFCURVE",
"33 134 OFFCURVE",
"51 86 CURVE SMOOTH",
"69 37 OFFCURVE",
"103 -2 OFFCURVE",
"151 -26 CURVE SMOOTH",
"199 -50 OFFCURVE",
"259 -54 OFFCURVE",
"309 -37 CURVE SMOOTH",
"359 -20 OFFCURVE",
"399 15 OFFCURVE",
"423 61 CURVE SMOOTH",
"447 107 OFFCURVE",
"452 166 OFFCURVE",
"433 218 CURVE SMOOTH",
"430 226 OFFCURVE",
"414 271 OFFCURVE",
"412 277 CURVE",
"389 339 LINE",
"381 360 OFFCURVE",
"373 381 OFFCURVE",
"366 402 CURVE SMOOTH",
"324 519 LINE SMOOTH",
"313 550 OFFCURVE",
"303 576 OFFCURVE",
"284 599 CURVE SMOOTH",
"268 618 OFFCURVE",
"248 634 OFFCURVE",
"224 645 CURVE SMOOTH",
"181 666 OFFCURVE",
"131 669 OFFCURVE",
"84 653 CURVE",
"102 612 LINE"
);
},
{
closed = 1;
nodes = (
"297 298 OFFCURVE",
"335 279 OFFCURVE",
"361 250 CURVE SMOOTH",
"387 221 OFFCURVE",
"401 180 OFFCURVE",
"398 139 CURVE SMOOTH",
"395 96 OFFCURVE",
"375 60 OFFCURVE",
"345 35 CURVE SMOOTH",
"315 10 OFFCURVE",
"275 -5 OFFCURVE",
"232 -2 CURVE SMOOTH",
"189 1 OFFCURVE",
"152 21 OFFCURVE",
"125 50 CURVE SMOOTH",
"98 79 OFFCURVE",
"84 119 OFFCURVE",
"87 160 CURVE SMOOTH",
"90 201 OFFCURVE",
"111 239 OFFCURVE",
"141 264 CURVE SMOOTH",
"171 289 OFFCURVE",
"210 304 OFFCURVE",
"254 301 CURVE SMOOTH"
);
}
);
width = 485;
}
);
note = partialdiff;
unicode = 2202;
},
{
glyphname = percent;
lastChange = "2018-03-20 01:15:58 +0000";
layers = (
{
layerId = "06F59E53-88A9-464B-8828-77AFB389ECED";
paths = (
{
closed = 1;
nodes = (
"214 406 OFFCURVE",
"246 421 OFFCURVE",
"270 445 CURVE SMOOTH",
"294 468 OFFCURVE",
"308 500 OFFCURVE",
"308 536 CURVE SMOOTH",
"308 572 OFFCURVE",
"294 604 OFFCURVE",
"270 628 CURVE SMOOTH",
"246 652 OFFCURVE",
"214 666 OFFCURVE",
"178 666 CURVE SMOOTH",
"142 666 OFFCURVE",
"110 652 OFFCURVE",
"87 628 CURVE SMOOTH",
"63 604 OFFCURVE",
"49 572 OFFCURVE",
"49 536 CURVE SMOOTH",
"49 500 OFFCURVE",
"63 468 OFFCURVE",
"87 445 CURVE",
"110 421 OFFCURVE",
"142 406 OFFCURVE",
"178 406 CURVE SMOOTH"
);
},
{
closed = 1;
nodes = (
"622 -2 OFFCURVE",
"654 12 OFFCURVE",
"678 36 CURVE SMOOTH",
"702 59 OFFCURVE",
"716 91 OFFCURVE",
"716 127 CURVE SMOOTH",
"716 163 OFFCURVE",
"702 195 OFFCURVE",
"678 219 CURVE SMOOTH",
"654 243 OFFCURVE",
"622 257 OFFCURVE",
"586 257 CURVE SMOOTH",
"550 257 OFFCURVE",
"518 243 OFFCURVE",
"494 219 CURVE SMOOTH",
"470 195 OFFCURVE",
"456 163 OFFCURVE",
"456 127 CURVE SMOOTH",
"456 91 OFFCURVE",
"470 59 OFFCURVE",
"494 36 CURVE SMOOTH",
"518 12 OFFCURVE",
"550 -2 OFFCURVE",
"586 -2 CURVE SMOOTH"
);
},
{
closed = 1;
nodes = (
"531 666 LINE",
"173 0 LINE",
"224 0 LINE",
"582 666 LINE"
);
},
{
closed = 1;
nodes = (
"202 620 OFFCURVE",
"223 611 OFFCURVE",
"239 596 CURVE",
"254 580 OFFCURVE",
"263 559 OFFCURVE",
"263 536 CURVE SMOOTH",
"263 489 OFFCURVE",
"225 451 OFFCURVE",
"178 451 CURVE SMOOTH",
"155 451 OFFCURVE",
"134 460 OFFCURVE",
"119 476 CURVE",
"103 491 OFFCURVE",
"94 512 OFFCURVE",
"94 536 CURVE SMOOTH",
"94 583 OFFCURVE",
"131 620 OFFCURVE",
"178 620 CURVE SMOOTH"
);
},
{
closed = 1;
nodes = (
"609 212 OFFCURVE",
"630 203 OFFCURVE",
"646 188 CURVE",
"661 172 OFFCURVE",
"670 151 OFFCURVE",
"670 127 CURVE SMOOTH",
"670 80 OFFCURVE",
"633 43 OFFCURVE",
"586 43 CURVE SMOOTH",
"562 43 OFFCURVE",
"541 52 OFFCURVE",
"526 68 CURVE",
"510 83 OFFCURVE",
"501 104 OFFCURVE",
"501 127 CURVE SMOOTH",
"501 174 OFFCURVE",
"539 212 OFFCURVE",
"586 212 CURVE SMOOTH"
);
}
);
width = 764;
}
);
note = percent;
unicode = 0025;
},
{
glyphname = perthousand;
lastChange = "2018-03-20 01:15:58 +0000";
layers = (
{
layerId = "06F59E53-88A9-464B-8828-77AFB389ECED";
paths = (
{
closed = 1;
nodes = (
"848 -2 OFFCURVE",
"880 12 OFFCURVE",
"904 36 CURVE SMOOTH",
"927 59 OFFCURVE",
"941 91 OFFCURVE",
"941 127 CURVE SMOOTH",
"941 163 OFFCURVE",
"927 195 OFFCURVE",
"904 219 CURVE SMOOTH",
"880 243 OFFCURVE",
"848 257 OFFCURVE",
"812 257 CURVE SMOOTH",
"776 257 OFFCURVE",
"745 243 OFFCURVE",
"722 219 CURVE SMOOTH",
"698 195 OFFCURVE",
"684 163 OFFCURVE",
"684 127 CURVE SMOOTH",
"684 91 OFFCURVE",
"698 59 OFFCURVE",
"722 36 CURVE",
"745 12 OFFCURVE",
"776 -2 OFFCURVE",
"812 -2 CURVE SMOOTH"
);
},
{
closed = 1;
nodes = (
"204 406 OFFCURVE",
"235 421 OFFCURVE",
"259 445 CURVE SMOOTH",
"282 468 OFFCURVE",
"296 500 OFFCURVE",
"296 536 CURVE SMOOTH",
"296 572 OFFCURVE",
"282 604 OFFCURVE",
"259 628 CURVE SMOOTH",
"235 652 OFFCURVE",
"204 666 OFFCURVE",
"168 666 CURVE SMOOTH",
"132 666 OFFCURVE",
"101 652 OFFCURVE",
"78 628 CURVE SMOOTH",
"54 604 OFFCURVE",
"40 572 OFFCURVE",
"40 536 CURVE SMOOTH",
"40 500 OFFCURVE",
"54 468 OFFCURVE",
"78 445 CURVE",
"101 421 OFFCURVE",
"132 406 OFFCURVE",
"168 406 CURVE SMOOTH"
);
},
{
closed = 1;
nodes = (
"476 666 LINE",
"122 0 LINE",
"172 0 LINE",
"526 666 LINE"
);
},
{
closed = 1;
nodes = (
"505 -2 OFFCURVE",
"537 12 OFFCURVE",
"561 36 CURVE SMOOTH",
"584 59 OFFCURVE",
"598 91 OFFCURVE",
"598 127 CURVE SMOOTH",
"598 163 OFFCURVE",
"584 195 OFFCURVE",
"561 219 CURVE SMOOTH",
"537 243 OFFCURVE",
"505 257 OFFCURVE",
"469 257 CURVE SMOOTH",
"433 257 OFFCURVE",
"402 243 OFFCURVE",
"379 219 CURVE SMOOTH",
"355 195 OFFCURVE",
"341 163 OFFCURVE",
"341 127 CURVE SMOOTH",
"341 91 OFFCURVE",
"355 59 OFFCURVE",
"379 36 CURVE",
"402 12 OFFCURVE",
"433 -2 OFFCURVE",
"469 -2 CURVE SMOOTH"
);
},
{
closed = 1;
nodes = (
"835 212 OFFCURVE",
"856 203 OFFCURVE",
"872 188 CURVE",
"887 172 OFFCURVE",
"896 151 OFFCURVE",
"896 127 CURVE SMOOTH",
"896 80 OFFCURVE",
"859 43 OFFCURVE",
"812 43 CURVE SMOOTH",
"765 43 OFFCURVE",
"728 80 OFFCURVE",
"728 127 CURVE SMOOTH",
"728 151 OFFCURVE",
"737 172 OFFCURVE",
"753 188 CURVE SMOOTH",
"768 203 OFFCURVE",
"789 212 OFFCURVE",
"812 212 CURVE SMOOTH"
);
},
{
closed = 1;
nodes = (
"215 620 OFFCURVE",
"252 583 OFFCURVE",
"252 536 CURVE SMOOTH",
"252 512 OFFCURVE",
"243 491 OFFCURVE",
"228 476 CURVE SMOOTH",
"212 460 OFFCURVE",
"191 451 OFFCURVE",
"168 451 CURVE SMOOTH",
"145 451 OFFCURVE",
"124 460 OFFCURVE",
"109 476 CURVE",
"93 491 OFFCURVE",
"84 512 OFFCURVE",
"84 536 CURVE SMOOTH",
"84 583 OFFCURVE",
"121 620 OFFCURVE",
"168 620 CURVE SMOOTH"
);
},
{
closed = 1;
nodes = (
"516 212 OFFCURVE",
"553 174 OFFCURVE",
"553 127 CURVE SMOOTH",
"553 104 OFFCURVE",
"544 83 OFFCURVE",
"529 68 CURVE SMOOTH",
"513 52 OFFCURVE",
"493 43 OFFCURVE",
"469 43 CURVE SMOOTH",
"422 43 OFFCURVE",
"386 80 OFFCURVE",
"386 127 CURVE SMOOTH",
"386 151 OFFCURVE",
"395 172 OFFCURVE",
"410 188 CURVE SMOOTH",
"425 203 OFFCURVE",
"446 212 OFFCURVE",
"469 212 CURVE SMOOTH"
);
}
);
width = 981;
}
);
note = perthousand;
unicode = 2030;
},
{
glyphname = lozenge;
lastChange = "2018-04-11 01:47:06 +0000";
layers = (
{
layerId = "06F59E53-88A9-464B-8828-77AFB389ECED";
paths = (
{
closed = 1;
nodes = (
"231 641 LINE",
"158 641 LINE",
"41 321 LINE",
"158 0 LINE",
"231 0 LINE",
"348 321 LINE"
);
},
{
closed = 1;
nodes = (
"195 36 LINE",
"89 321 LINE",
"195 605 LINE",
"300 321 LINE"
);
}
);
width = 389;
}
);
note = lozenge;
unicode = 25CA;
},
{
glyphname = at;
lastChange = "2018-04-11 01:46:46 +0000";
layers = (
{
layerId = "06F59E53-88A9-464B-8828-77AFB389ECED";
paths = (
{
closed = 1;
nodes = (
"690 174 OFFCURVE",
"710 236 OFFCURVE",
"710 332 CURVE SMOOTH",
"710 424 OFFCURVE",
"672 508 OFFCURVE",
"612 569 CURVE SMOOTH",
"551 629 OFFCURVE",
"467 667 OFFCURVE",
"375 667 CURVE SMOOTH",
"283 667 OFFCURVE",
"199 629 OFFCURVE",
"139 569 CURVE SMOOTH",
"78 508 OFFCURVE",
"40 424 OFFCURVE",
"40 332 CURVE SMOOTH",
"40 240 OFFCURVE",
"78 156 OFFCURVE",
"139 96 CURVE SMOOTH",
"199 35 OFFCURVE",
"283 -3 OFFCURVE",
"375 -3 CURVE SMOOTH",
"401 -3 OFFCURVE",
"425 -1 OFFCURVE",
"446 4 CURVE",
"435 48 LINE",
"415 44 OFFCURVE",
"395 42 OFFCURVE",
"375 42 CURVE SMOOTH",
"295 42 OFFCURVE",
"223 75 OFFCURVE",
"171 127 CURVE SMOOTH",
"118 179 OFFCURVE",
"86 252 OFFCURVE",
"86 332 CURVE SMOOTH",
"86 412 OFFCURVE",
"118 484 OFFCURVE",
"171 537 CURVE SMOOTH",
"223 589 OFFCURVE",
"295 621 OFFCURVE",
"375 621 CURVE SMOOTH",
"455 621 OFFCURVE",
"528 589 OFFCURVE",
"580 537 CURVE SMOOTH",
"632 484 OFFCURVE",
"665 412 OFFCURVE",
"665 332 CURVE SMOOTH",
"665 256 OFFCURVE",
"651 200 OFFCURVE",
"616 168 CURVE SMOOTH",
"604 157 OFFCURVE",
"589 151 OFFCURVE",
"574 148 CURVE",
"558 144 OFFCURVE",
"544 146 OFFCURVE",
"533 151 CURVE",
"520 156 OFFCURVE",
"517 164 OFFCURVE",
"517 175 CURVE SMOOTH",
"517 220 LINE",
"517 480 LINE",
"472 480 LINE",
"472 419 LINE",
"444 471 OFFCURVE",
"392 480 OFFCURVE",
"356 480 CURVE SMOOTH",
"316 480 OFFCURVE",
"280 464 OFFCURVE",
"253 437 CURVE SMOOTH",
"226 410 OFFCURVE",
"210 374 OFFCURVE",
"210 334 CURVE SMOOTH",
"210 294 OFFCURVE",
"226 257 OFFCURVE",
"253 231 CURVE SMOOTH",
"280 205 OFFCURVE",
"316 188 OFFCURVE",
"356 188 CURVE SMOOTH",
"393 188 OFFCURVE",
"440 205 OFFCURVE",
"472 251 CURVE",
"472 175 LINE SMOOTH",
"472 144 OFFCURVE",
"486 122 OFFCURVE",
"515 109 CURVE",
"535 101 OFFCURVE",
"559 99 OFFCURVE",
"583 104 CURVE",
"607 108 OFFCURVE",
"630 119 OFFCURVE",
"647 135 CURVE SMOOTH"
);
},
{
closed = 1;
nodes = (
"384 434 OFFCURVE",
"409 423 OFFCURVE",
"428 405 CURVE SMOOTH",
"447 387 OFFCURVE",
"458 362 OFFCURVE",
"458 334 CURVE SMOOTH",
"458 306 OFFCURVE",
"447 281 OFFCURVE",
"428 263 CURVE SMOOTH",
"409 245 OFFCURVE",
"384 233 OFFCURVE",
"356 233 CURVE SMOOTH",
"328 233 OFFCURVE",
"304 245 OFFCURVE",
"286 263 CURVE SMOOTH",
"268 281 OFFCURVE",
"256 306 OFFCURVE",
"256 334 CURVE SMOOTH",
"256 390 OFFCURVE",
"300 434 OFFCURVE",
"356 434 CURVE SMOOTH"
);
}
);
width = 750;
}
);
note = at;
unicode = 0040;
},
{
glyphname = ampersand;
lastChange = "2018-04-11 01:46:26 +0000";
layers = (
{
layerId = "06F59E53-88A9-464B-8828-77AFB389ECED";
paths = (
{
closed = 1;
nodes = (
"429 68 LINE",
"468 115 OFFCURVE",
"483 162 OFFCURVE",
"483 213 CURVE SMOOTH",
"483 222 LINE",
"437 222 LINE",
"437 211 LINE SMOOTH",
"437 180 OFFCURVE",
"430 149 OFFCURVE",
"402 105 CURVE",
"146 462 LINE",
"119 507 OFFCURVE",
"119 544 OFFCURVE",
"162 587 CURVE SMOOTH",
"183 608 OFFCURVE",
"213 621 OFFCURVE",
"246 621 CURVE SMOOTH",
"309 621 OFFCURVE",
"358 576 OFFCURVE",
"365 516 CURVE",
"411 516 LINE",
"407 557 OFFCURVE",
"389 595 OFFCURVE",
"359 623 CURVE SMOOTH",
"329 650 OFFCURVE",
"290 666 OFFCURVE",
"246 666 CURVE SMOOTH",
"201 666 OFFCURVE",
"160 647 OFFCURVE",
"130 618 CURVE SMOOTH",
"79 568 OFFCURVE",
"63 501 OFFCURVE",
"108 436 CURVE",
"137 397 LINE",
"81 358 OFFCURVE",
"53 312 OFFCURVE",
"44 257 CURVE SMOOTH",
"33 201 OFFCURVE",
"47 143 OFFCURVE",
"80 95 CURVE SMOOTH",
"124 30 OFFCURVE",
"195 -4 OFFCURVE",
"267 -4 CURVE SMOOTH",
"306 -4 OFFCURVE",
"343 5 OFFCURVE",
"378 28 CURVE SMOOTH",
"395 39 LINE",
"422 0 LINE",
"479 0 LINE"
);
},
{
closed = 1;
nodes = (
"354 66 LINE",
"315 41 OFFCURVE",
"271 35 OFFCURVE",
"228 45 CURVE SMOOTH",
"185 55 OFFCURVE",
"145 81 OFFCURVE",
"118 120 CURVE SMOOTH",
"91 159 OFFCURVE",
"81 205 OFFCURVE",
"89 250 CURVE SMOOTH",
"96 293 OFFCURVE",
"118 328 OFFCURVE",
"163 361 CURVE",
"369 74 LINE"
);
}
);
width = 523;
}
);
note = ampersand;
unicode = 0026;
},
{
glyphname = paragraph;
lastChange = "2018-03-20 01:15:58 +0000";
layers = (
{
layerId = "06F59E53-88A9-464B-8828-77AFB389ECED";
paths = (
{
closed = 1;
nodes = (
"443 665 LINE",
"397 665 LINE",
"397 0 LINE",
"443 0 LINE"
);
},
{
closed = 1;
nodes = (
"305 665 LINE",
"193 665 LINE SMOOTH",
"150 665 OFFCURVE",
"113 648 OFFCURVE",
"85 621 CURVE SMOOTH",
"57 594 OFFCURVE",
"40 557 OFFCURVE",
"40 516 CURVE SMOOTH",
"40 475 OFFCURVE",
"57 437 OFFCURVE",
"85 410 CURVE SMOOTH",
"113 383 OFFCURVE",
"150 366 OFFCURVE",
"193 366 CURVE SMOOTH",
"260 366 LINE",
"260 0 LINE",
"305 0 LINE"
);
}
);
width = 493;
}
);
note = paragraph;
unicode = 00B6;
},
{
glyphname = section;
lastChange = "2018-04-11 01:49:48 +0000";
layers = (
{
layerId = "06F59E53-88A9-464B-8828-77AFB389ECED";
paths = (
{
closed = 1;
nodes = (
"63 414 OFFCURVE",
"56 403 OFFCURVE",
"49 388 CURVE SMOOTH",
"44 376 OFFCURVE",
"41 361 OFFCURVE",
"40 335 CURVE SMOOTH",
"37 280 OFFCURVE",
"62 243 OFFCURVE",
"102 223 CURVE SMOOTH",
"139 204 OFFCURVE",
"190 200 OFFCURVE",
"238 200 CURVE SMOOTH",
"265 200 OFFCURVE",
"291 196 OFFCURVE",
"310 180 CURVE SMOOTH",
"322 170 LINE",
"339 150 OFFCURVE",
"346 127 OFFCURVE",
"343 100 CURVE",
"340 87 OFFCURVE",
"338 65 OFFCURVE",
"320 48 CURVE SMOOTH",
"302 31 OFFCURVE",
"270 16 OFFCURVE",
"214 16 CURVE SMOOTH",
"167 16 OFFCURVE",
"130 30 OFFCURVE",
"109 63 CURVE SMOOTH",
"102 74 OFFCURVE",
"98 83 OFFCURVE",
"95 92 CURVE",
"46 92 LINE",
"51 75 OFFCURVE",
"57 56 OFFCURVE",
"69 39 CURVE",
"78 23 OFFCURVE",
"95 6 OFFCURVE",
"119 -6 CURVE",
"142 -19 OFFCURVE",
"174 -29 OFFCURVE",
"215 -29 CURVE SMOOTH",
"319 -29 OFFCURVE",
"377 16 OFFCURVE",
"388 93 CURVE SMOOTH",
"393 125 OFFCURVE",
"386 179 OFFCURVE",
"350 213 CURVE",
"378 235 OFFCURVE",
"390 272 OFFCURVE",
"390 305 CURVE SMOOTH",
"390 361 OFFCURVE",
"368 397 OFFCURVE",
"328 417 CURVE SMOOTH",
"291 436 OFFCURVE",
"240 440 OFFCURVE",
"192 440 CURVE SMOOTH",
"165 440 OFFCURVE",
"139 444 OFFCURVE",
"120 460 CURVE SMOOTH",
"109 469 LINE",
"85 493 OFFCURVE",
"80 532 OFFCURVE",
"93 563 CURVE",
"101 588 OFFCURVE",
"121 604 OFFCURVE",
"143 613 CURVE",
"165 621 OFFCURVE",
"192 624 OFFCURVE",
"216 624 CURVE SMOOTH",
"263 624 OFFCURVE",
"300 610 OFFCURVE",
"321 577 CURVE SMOOTH",
"328 566 OFFCURVE",
"332 559 OFFCURVE",
"335 548 CURVE",
"384 548 LINE",
"379 565 OFFCURVE",
"373 584 OFFCURVE",
"361 601 CURVE SMOOTH",
"350 617 OFFCURVE",
"335 634 OFFCURVE",
"312 647 CURVE",
"288 659 OFFCURVE",
"256 669 OFFCURVE",
"215 669 CURVE SMOOTH",
"111 669 OFFCURVE",
"52 624 OFFCURVE",
"41 547 CURVE SMOOTH",
"36 511 OFFCURVE",
"46 463 OFFCURVE",
"80 435 CURVE"
);
},
{
closed = 1;
nodes = (
"239 395 OFFCURVE",
"277 392 OFFCURVE",
"303 380 CURVE SMOOTH",
"329 367 OFFCURVE",
"343 345 OFFCURVE",
"343 305 CURVE SMOOTH",
"343 279 OFFCURVE",
"330 255 OFFCURVE",
"305 234 CURVE",
"281 242 OFFCURVE",
"262 245 OFFCURVE",
"238 245 CURVE SMOOTH",
"191 245 OFFCURVE",
"154 248 OFFCURVE",
"128 261 CURVE SMOOTH",
"102 273 OFFCURVE",
"87 295 OFFCURVE",
"87 335 CURVE SMOOTH",
"87 361 OFFCURVE",
"94 390 OFFCURVE",
"119 411 CURVE",
"140 400 OFFCURVE",
"169 395 OFFCURVE",
"192 395 CURVE SMOOTH"
);
}
);
width = 430;
}
);
note = section;
unicode = 00A7;
},
{
glyphname = copyright;
lastChange = "2018-03-20 01:15:58 +0000";
layers = (
{
layerId = "06F59E53-88A9-464B-8828-77AFB389ECED";
paths = (
{
closed = 1;
nodes = (
"467 -4 OFFCURVE",
"551 33 OFFCURVE",
"612 94 CURVE SMOOTH",
"672 154 OFFCURVE",
"710 238 OFFCURVE",
"710 331 CURVE SMOOTH",
"710 423 OFFCURVE",
"672 507 OFFCURVE",
"612 568 CURVE SMOOTH",
"551 628 OFFCURVE",
"467 666 OFFCURVE",
"375 666 CURVE SMOOTH",
"283 666 OFFCURVE",
"199 628 OFFCURVE",
"139 568 CURVE SMOOTH",
"78 507 OFFCURVE",
"40 423 OFFCURVE",
"40 331 CURVE SMOOTH",
"40 238 OFFCURVE",
"78 154 OFFCURVE",
"139 94 CURVE SMOOTH",
"199 33 OFFCURVE",
"283 -4 OFFCURVE",
"375 -4 CURVE SMOOTH"
);
},
{
closed = 1;
nodes = (
"455 620 OFFCURVE",
"528 587 OFFCURVE",
"580 535 CURVE SMOOTH",
"632 483 OFFCURVE",
"665 411 OFFCURVE",
"665 331 CURVE SMOOTH",
"665 251 OFFCURVE",
"632 178 OFFCURVE",
"580 126 CURVE SMOOTH",
"528 74 OFFCURVE",
"455 41 OFFCURVE",
"375 41 CURVE SMOOTH",
"295 41 OFFCURVE",
"223 74 OFFCURVE",
"171 126 CURVE SMOOTH",
"119 178 OFFCURVE",
"86 251 OFFCURVE",
"86 331 CURVE SMOOTH",
"86 411 OFFCURVE",
"119 483 OFFCURVE",
"171 535 CURVE SMOOTH",
"223 587 OFFCURVE",
"295 620 OFFCURVE",
"375 620 CURVE SMOOTH"
);
},
{
closed = 1;
nodes = (
"434 154 OFFCURVE",
"480 173 OFFCURVE",
"513 208 CURVE",
"479 237 LINE",
"453 212 OFFCURVE",
"422 200 OFFCURVE",
"385 200 CURVE SMOOTH",
"349 200 OFFCURVE",
"316 215 OFFCURVE",
"292 239 CURVE SMOOTH",
"268 263 OFFCURVE",
"253 296 OFFCURVE",
"253 333 CURVE SMOOTH",
"253 369 OFFCURVE",
"268 403 OFFCURVE",
"292 427 CURVE SMOOTH",
"316 451 OFFCURVE",
"349 466 OFFCURVE",
"385 466 CURVE SMOOTH",
"421 466 OFFCURVE",
"454 452 OFFCURVE",
"479 428 CURVE",
"513 457 LINE",
"480 492 OFFCURVE",
"434 511 OFFCURVE",
"385 511 CURVE SMOOTH",
"337 511 OFFCURVE",
"292 491 OFFCURVE",
"260 459 CURVE SMOOTH",
"227 427 OFFCURVE",
"207 382 OFFCURVE",
"207 333 CURVE SMOOTH",
"207 284 OFFCURVE",
"227 239 OFFCURVE",
"260 207 CURVE SMOOTH",
"292 174 OFFCURVE",
"337 154 OFFCURVE",
"385 154 CURVE SMOOTH"
);
}
);
width = 750;
}
);
note = copyright;
unicode = 00A9;
},
{
glyphname = registered;
lastChange = "2018-04-11 01:50:49 +0000";
layers = (
{
layerId = "06F59E53-88A9-464B-8828-77AFB389ECED";
paths = (
{
closed = 1;
nodes = (
"334 209 OFFCURVE",
"391 235 OFFCURVE",
"433 277 CURVE SMOOTH",
"475 319 OFFCURVE",
"500 375 OFFCURVE",
"500 439 CURVE SMOOTH",
"500 502 OFFCURVE",
"475 560 OFFCURVE",
"433 602 CURVE SMOOTH",
"391 644 OFFCURVE",
"334 669 OFFCURVE",
"270 669 CURVE SMOOTH",
"206 669 OFFCURVE",
"150 644 OFFCURVE",
"108 602 CURVE SMOOTH",
"66 560 OFFCURVE",
"40 502 OFFCURVE",
"40 439 CURVE SMOOTH",
"40 375 OFFCURVE",
"66 319 OFFCURVE",
"108 277 CURVE SMOOTH",
"150 235 OFFCURVE",
"206 209 OFFCURVE",
"270 209 CURVE SMOOTH"
);
},
{
closed = 1;
nodes = (
"323 632 OFFCURVE",
"371 609 OFFCURVE",
"406 575 CURVE SMOOTH",
"440 540 OFFCURVE",
"463 492 OFFCURVE",
"463 439 CURVE SMOOTH",
"463 386 OFFCURVE",
"440 338 OFFCURVE",
"406 303 CURVE SMOOTH",
"371 268 OFFCURVE",
"323 245 OFFCURVE",
"270 245 CURVE SMOOTH",
"217 245 OFFCURVE",
"169 268 OFFCURVE",
"134 303 CURVE SMOOTH",
"100 338 OFFCURVE",
"77 386 OFFCURVE",
"77 439 CURVE SMOOTH",
"77 492 OFFCURVE",
"100 540 OFFCURVE",
"134 575 CURVE SMOOTH",
"169 609 OFFCURVE",
"217 632 OFFCURVE",
"270 632 CURVE SMOOTH"
);
},
{
closed = 1;
nodes = (
"276 408 LINE",
"322 412 OFFCURVE",
"350 443 OFFCURVE",
"350 489 CURVE SMOOTH",
"350 535 OFFCURVE",
"315 571 OFFCURVE",
"269 571 CURVE SMOOTH",
"202 571 LINE",
"202 330 LINE",
"238 330 LINE",
"238 398 LINE",
"303 330 LINE",
"351 330 LINE"
);
},
{
closed = 1;
nodes = (
"295 534 OFFCURVE",
"316 514 OFFCURVE",
"316 489 CURVE SMOOTH",
"316 463 OFFCURVE",
"296 442 OFFCURVE",
"270 442 CURVE SMOOTH",
"238 442 LINE",
"238 534 LINE",
"270 534 LINE SMOOTH"
);
}
);
width = 540;
}
);
note = registered;
unicode = 00AE;
},
{
glyphname = trademark;
lastChange = "2018-04-11 01:51:02 +0000";
layers = (
{
layerId = "06F59E53-88A9-464B-8828-77AFB389ECED";
paths = (
{
closed = 1;
nodes = (
"426 665 LINE",
"387 665 LINE",
"301 559 LINE",
"214 665 LINE",
"175 665 LINE",
"175 441 LINE",
"208 441 LINE",
"208 621 LINE",
"286 526 LINE",
"316 526 LINE",
"394 621 LINE",
"394 442 LINE",
"426 442 LINE"
);
},
{
closed = 1;
nodes = (
"158 664 LINE",
"41 664 LINE",
"41 632 LINE",
"83 632 LINE",
"83 441 LINE",
"116 441 LINE",
"116 632 LINE",
"158 632 LINE"
);
}
);
width = 467;
}
);
note = trademark;
unicode = 2122;
},
{
glyphname = degree;
lastChange = "2018-03-22 21:11:52 +0000";
layers = (
{
layerId = "06F59E53-88A9-464B-8828-77AFB389ECED";
paths = (
{
closed = 1;
nodes = (
"214 428 OFFCURVE",
"250 443 OFFCURVE",
"275 468 CURVE SMOOTH",
"299 493 OFFCURVE",
"315 526 OFFCURVE",
"315 565 CURVE SMOOTH",
"315 602 OFFCURVE",
"299 637 OFFCURVE",
"275 662 CURVE SMOOTH",
"250 687 OFFCURVE",
"214 702 OFFCURVE",
"177 702 CURVE SMOOTH",
"138 702 OFFCURVE",
"105 687 OFFCURVE",
"80 662 CURVE SMOOTH",
"55 637 OFFCURVE",
"40 602 OFFCURVE",
"40 565 CURVE SMOOTH",
"40 526 OFFCURVE",
"55 493 OFFCURVE",
"80 468 CURVE SMOOTH",
"105 443 OFFCURVE",
"138 428 OFFCURVE",
"177 428 CURVE SMOOTH"
);
},
{
closed = 1;
nodes = (
"202 656 OFFCURVE",
"225 646 OFFCURVE",
"241 629 CURVE SMOOTH",
"258 613 OFFCURVE",
"268 590 OFFCURVE",
"268 565 CURVE SMOOTH",
"268 540 OFFCURVE",
"258 517 OFFCURVE",
"241 501 CURVE SMOOTH",
"225 484 OFFCURVE",
"202 474 OFFCURVE",
"177 474 CURVE SMOOTH",
"152 474 OFFCURVE",
"129 484 OFFCURVE",
"113 501 CURVE SMOOTH",
"96 517 OFFCURVE",
"86 540 OFFCURVE",
"86 565 CURVE SMOOTH",
"86 590 OFFCURVE",
"96 613 OFFCURVE",
"113 629 CURVE SMOOTH",
"129 646 OFFCURVE",
"152 656 OFFCURVE",
"177 656 CURVE SMOOTH"
);
}
);
width = 355;
}
);
note = degree;
unicode = 00B0;
},
{
glyphname = bar;
lastChange = "2018-03-22 21:12:15 +0000";
layers = (
{
layerId = "06F59E53-88A9-464B-8828-77AFB389ECED";
paths = (
{
closed = 1;
nodes = (
"98 665 LINE",
"50 665 LINE",
"50 0 LINE",
"98 0 LINE"
);
}
);
width = 148;
}
);
note = bar;
unicode = 007C;
},
{
glyphname = brokenbar;
lastChange = "2018-03-22 21:12:45 +0000";
layers = (
{
layerId = "06F59E53-88A9-464B-8828-77AFB389ECED";
paths = (
{
closed = 1;
nodes = (
"98 666 LINE",
"50 666 LINE",
"50 419 LINE",
"98 419 LINE"
);
},
{
closed = 1;
nodes = (
"98 247 LINE",
"50 247 LINE",
"50 0 LINE",
"98 0 LINE"
);
}
);
width = 148;
}
);
note = brokenbar;
unicode = 00A6;
},
{
glyphname = dagger;
lastChange = "2018-03-22 21:13:10 +0000";
layers = (
{
layerId = "06F59E53-88A9-464B-8828-77AFB389ECED";
paths = (
{
closed = 1;
nodes = (
"327 507 LINE",
"207 507 LINE",
"207 665 LINE",
"159 665 LINE",
"159 507 LINE",
"40 507 LINE",
"40 461 LINE",
"159 461 LINE",
"159 187 LINE",
"207 187 LINE",
"207 461 LINE",
"327 461 LINE"
);
}
);
width = 367;
}
);
note = dagger;
unicode = 2020;
},
{
glyphname = daggerdbl;
lastChange = "2018-03-22 21:13:34 +0000";
layers = (
{
layerId = "06F59E53-88A9-464B-8828-77AFB389ECED";
paths = (
{
closed = 1;
nodes = (
"327 359 LINE",
"207 359 LINE",
"207 461 LINE",
"327 461 LINE",
"327 507 LINE",
"207 507 LINE",
"207 665 LINE",
"159 665 LINE",
"159 507 LINE",
"40 507 LINE",
"40 461 LINE",
"159 461 LINE",
"159 359 LINE",
"40 359 LINE",
"40 313 LINE",
"159 313 LINE",
"159 187 LINE",
"207 187 LINE",
"207 313 LINE",
"327 313 LINE"
);
}
);
width = 367;
}
);
note = daggerdbl;
unicode = 2021;
},
{
glyphname = asciicircum;
lastChange = "2018-04-11 01:51:53 +0000";
layers = (
{
layerId = "06F59E53-88A9-464B-8828-77AFB389ECED";
paths = (
{
closed = 1;
nodes = (
"235 665 LINE",
"162 665 LINE",
"50 344 LINE",
"98 344 LINE",
"198 621 LINE",
"299 344 LINE",
"347 344 LINE"
);
}
);
width = 397;
}
);
note = asciicircum;
unicode = 005E;
},
{
glyphname = dieresiscomb;
lastChange = "2018-04-11 01:56:26 +0000";
layers = (
{
anchors = (
{
name = _top;
position = "{99, 538}";
},
{
name = top;
position = "{99, 667}";
}
);
layerId = "06F59E53-88A9-464B-8828-77AFB389ECED";
paths = (
{
closed = 1;
nodes = (
"46 607 OFFCURVE",
"60 621 OFFCURVE",
"60 637 CURVE SMOOTH",
"60 654 OFFCURVE",
"46 667 OFFCURVE",
"29 667 CURVE SMOOTH",
"13 667 OFFCURVE",
"0 654 OFFCURVE",
"0 637 CURVE SMOOTH",
"0 621 OFFCURVE",
"13 607 OFFCURVE",
"29 607 CURVE SMOOTH"
);
},
{
closed = 1;
nodes = (
"184 607 OFFCURVE",
"197 621 OFFCURVE",
"197 637 CURVE SMOOTH",
"197 654 OFFCURVE",
"184 667 OFFCURVE",
"167 667 CURVE SMOOTH",
"150 667 OFFCURVE",
"137 654 OFFCURVE",
"137 637 CURVE SMOOTH",
"137 621 OFFCURVE",
"150 607 OFFCURVE",
"167 607 CURVE SMOOTH"
);
}
);
width = 197;
}
);
unicode = 0308;
},
{
glyphname = dotaccentcomb;
lastChange = "2018-04-11 01:56:20 +0000";
layers = (
{
anchors = (
{
name = _top;
position = "{30, 538}";
},
{
name = top;
position = "{30, 667}";
}
);
layerId = "06F59E53-88A9-464B-8828-77AFB389ECED";
paths = (
{
closed = 1;
nodes = (
"47 607 OFFCURVE",
"60 620 OFFCURVE",
"60 637 CURVE SMOOTH",
"60 653 OFFCURVE",
"47 667 OFFCURVE",
"29 667 CURVE SMOOTH",
"13 667 OFFCURVE",
"0 653 OFFCURVE",
"0 637 CURVE SMOOTH",
"0 620 OFFCURVE",
"13 607 OFFCURVE",
"29 607 CURVE SMOOTH"
);
}
);
width = 60;
}
);
unicode = 0307;
},
{
glyphname = gravecomb;
lastChange = "2018-04-16 22:48:00 +0000";
layers = (
{
anchors = (
{
name = _top;
position = "{63, 485}";
},
{
name = top;
position = "{63, 712}";
}
);
layerId = "06F59E53-88A9-464B-8828-77AFB389ECED";
paths = (
{
closed = 1;
nodes = (
"0 665 LINE",
"42 549 LINE",
"79 549 LINE",
"44 665 LINE"
);
}
);
width = 79;
}
);
note = gravecomb;
unicode = 0300;
},
{
glyphname = acutecomb;
lastChange = "2018-04-16 22:48:12 +0000";
layers = (
{
anchors = (
{
name = _top;
position = "{31, 483}";
},
{
name = top;
position = "{31, 712}";
}
);
layerId = "06F59E53-88A9-464B-8828-77AFB389ECED";
paths = (
{
closed = 1;
nodes = (
"35 665 LINE",
"0 549 LINE",
"37 549 LINE",
"79 665 LINE"
);
}
);
width = 79;
}
);
note = acutecomb;
unicode = 0301;
},
{
glyphname = hungarumlautcomb;
lastChange = "2018-04-16 22:50:24 +0000";
layers = (
{
anchors = (
{
name = _top;
position = "{160, 500}";
},
{
name = top;
position = "{160, 711}";
}
);
layerId = "06F59E53-88A9-464B-8828-77AFB389ECED";
paths = (
{
closed = 1;
nodes = (
"215 665 LINE",
"176 548 LINE",
"217 548 LINE",
"264 665 LINE"
);
},
{
closed = 1;
nodes = (
"88 665 LINE",
"50 548 LINE",
"90 548 LINE",
"137 665 LINE"
);
}
);
width = 319;
}
);
unicode = 030B;
},
{
glyphname = circumflexcomb;
lastChange = "2018-04-11 01:56:39 +0000";
layers = (
{
anchors = (
{
name = _top;
position = "{111, 476}";
},
{
name = top;
position = "{111, 676}";
}
);
layerId = "06F59E53-88A9-464B-8828-77AFB389ECED";
paths = (
{
closed = 1;
nodes = (
"113 676 LINE",
"0 551 LINE",
"51 551 LINE",
"112 619 LINE",
"172 551 LINE",
"221 551 LINE"
);
}
);
width = 221;
}
);
unicode = 0302;
},
{
glyphname = caroncomb;
lastChange = "2018-04-11 01:56:39 +0000";
layers = (
{
anchors = (
{
name = _top;
position = "{111, 500}";
},
{
name = top;
position = "{111, 676}";
}
);
layerId = "06F59E53-88A9-464B-8828-77AFB389ECED";
paths = (
{
closed = 1;
nodes = (
"172 676 LINE",
"112 608 LINE",
"51 676 LINE",
"0 676 LINE",
"113 551 LINE",
"221 676 LINE"
);
}
);
width = 221;
}
);
unicode = 030C;
},
{
glyphname = brevecomb;
lastChange = "2018-04-11 01:56:39 +0000";
layers = (
{
anchors = (
{
name = _top;
position = "{134, 500}";
},
{
name = top;
position = "{134, 682}";
}
);
layerId = "06F59E53-88A9-464B-8828-77AFB389ECED";
paths = (
{
closed = 1;
nodes = (
"254 610 OFFCURVE",
"267 682 CURVE",
"225 682 LINE",
"215 633 OFFCURVE",
"180 595 OFFCURVE",
"136 595 CURVE SMOOTH",
"81 595 OFFCURVE",
"56 628 OFFCURVE",
"43 682 CURVE",
"0 682 LINE",
"11 614 OFFCURVE",
"67 557 OFFCURVE",
"134 557 CURVE SMOOTH",
"198 557 OFFCURVE"
);
}
);
width = 267;
}
);
unicode = 0306;
},
{
glyphname = ringcomb;
lastChange = "2018-04-11 01:56:39 +0000";
layers = (
{
anchors = (
{
name = _top;
position = "{91, 500}";
},
{
name = top;
position = "{91, 717}";
}
);
layerId = "06F59E53-88A9-464B-8828-77AFB389ECED";
paths = (
{
closed = 1;
nodes = (
"140 536 OFFCURVE",
"182 577 OFFCURVE",
"182 626 CURVE SMOOTH",
"182 671 OFFCURVE",
"145 717 OFFCURVE",
"93 717 CURVE SMOOTH",
"42 717 OFFCURVE",
"0 678 OFFCURVE",
"0 627 CURVE SMOOTH",
"0 580 OFFCURVE",
"37 536 OFFCURVE",
"91 536 CURVE SMOOTH"
);
},
{
closed = 1;
nodes = (
"58 571 OFFCURVE",
"35 599 OFFCURVE",
"35 627 CURVE SMOOTH",
"35 660 OFFCURVE",
"57 682 OFFCURVE",
"91 682 CURVE SMOOTH",
"121 682 OFFCURVE",
"147 657 OFFCURVE",
"147 627 CURVE SMOOTH",
"147 595 OFFCURVE",
"120 571 OFFCURVE",
"90 571 CURVE SMOOTH"
);
}
);
width = 182;
}
);
unicode = 030A;
},
{
glyphname = tildecomb;
lastChange = "2018-04-11 01:56:39 +0000";
layers = (
{
anchors = (
{
name = _top;
position = "{149, 476}";
},
{
name = top;
position = "{149, 630}";
}
);
layerId = "06F59E53-88A9-464B-8828-77AFB389ECED";
paths = (
{
closed = 1;
nodes = (
"38 563 OFFCURVE",
"58 589 OFFCURVE",
"79 589 CURVE",
"91 588 OFFCURVE",
"102 584 OFFCURVE",
"113 579 CURVE SMOOTH",
"130 571 OFFCURVE",
"151 556 OFFCURVE",
"169 547 CURVE SMOOTH",
"188 537 OFFCURVE",
"208 530 OFFCURVE",
"228 534 CURVE",
"253 541 OFFCURVE",
"275 560 OFFCURVE",
"299 603 CURVE",
"271 629 LINE",
"258 601 OFFCURVE",
"244 577 OFFCURVE",
"220 573 CURVE SMOOTH",
"204 570 OFFCURVE",
"184 583 OFFCURVE",
"159 598 CURVE SMOOTH",
"147 605 OFFCURVE",
"135 612 OFFCURVE",
"122 619 CURVE",
"96 631 OFFCURVE",
"57 642 OFFCURVE",
"21 599 CURVE SMOOTH",
"12 588 OFFCURVE",
"5 578 OFFCURVE",
"0 568 CURVE",
"27 542 LINE"
);
}
);
width = 299;
}
);
note = tildecomb;
unicode = 0303;
},
{
glyphname = macroncomb;
lastChange = "2018-04-11 01:56:39 +0000";
layers = (
{
anchors = (
{
name = _top;
position = "{137, 500}";
},
{
name = top;
position = "{137, 626}";
}
);
layerId = "06F59E53-88A9-464B-8828-77AFB389ECED";
paths = (
{
closed = 1;
nodes = (
"273 622 LINE",
"0 622 LINE",
"0 582 LINE",
"273 582 LINE"
);
}
);
width = 273;
}
);
unicode = 0304;
},
{
glyphname = commaturnedabovecomb;
lastChange = "2018-04-16 22:50:48 +0000";
layers = (
{
anchors = (
{
name = _top;
position = "{35, 485}";
},
{
name = top;
position = "{35, 712}";
}
);
layerId = "06F59E53-88A9-464B-8828-77AFB389ECED";
paths = (
{
closed = 1;
nodes = (
"45 665 LINE",
"0 665 LINE",
"40 549 LINE",
"77 549 LINE"
);
}
);
width = 77;
}
);
unicode = 0312;
},
{
glyphname = commaaccentcomb;
lastChange = "2018-04-16 22:48:52 +0000";
layers = (
{
anchors = (
{
name = _bottom;
position = "{41, 0}";
},
{
name = bottom;
position = "{44, -164}";
}
);
layerId = "06F59E53-88A9-464B-8828-77AFB389ECED";
paths = (
{
closed = 1;
nodes = (
"36 -38 LINE",
"0 -164 LINE",
"39 -164 LINE",
"86 -38 LINE"
);
}
);
width = 86;
}
);
unicode = 0326;
},
{
glyphname = cedillacomb;
lastChange = "2018-04-11 02:00:02 +0000";
layers = (
{
anchors = (
{
name = _bottom;
position = "{77, 0}";
},
{
name = bottom;
position = "{77, -210}";
}
);
layerId = "06F59E53-88A9-464B-8828-77AFB389ECED";
paths = (
{
closed = 1;
nodes = (
"74 -50 OFFCURVE",
"119 -76 OFFCURVE",
"119 -116 CURVE SMOOTH",
"119 -162 OFFCURVE",
"76 -189 OFFCURVE",
"25 -166 CURVE",
"0 -194 LINE",
"62 -234 OFFCURVE",
"154 -196 OFFCURVE",
"154 -116 CURVE SMOOTH",
"154 -71 OFFCURVE",
"117 -20 OFFCURVE",
"57 -21 CURVE",
"72 15 LINE",
"34 15 LINE",
"18 -17 LINE",
"31 -59 LINE"
);
}
);
width = 154;
}
);
unicode = 0327;
},
{
glyphname = ogonekcomb;
lastChange = "2018-04-11 01:56:39 +0000";
layers = (
{
anchors = (
{
name = _ogonek;
position = "{104, 10}";
}
);
layerId = "06F59E53-88A9-464B-8828-77AFB389ECED";
paths = (
{
closed = 1;
nodes = (
"0 -61 OFFCURVE",
"0 -109 CURVE SMOOTH",
"0 -194 OFFCURVE",
"103 -242 OFFCURVE",
"176 -182 CURVE",
"149 -156 LINE",
"101 -188 OFFCURVE",
"41 -164 OFFCURVE",
"41 -112 CURVE SMOOTH",
"41 -64 OFFCURVE",
"67 -46 OFFCURVE",
"112 -46 CURVE",
"112 10 LINE",
"76 10 LINE",
"76 -12 LINE",
"26 -22 OFFCURVE"
);
}
);
width = 176;
}
);
unicode = 0328;
},
{
glyphname = strokeshortcomb;
lastChange = "2018-04-11 02:16:14 +0000";
layers = (
{
anchors = (
{
name = _center;
position = "{195, 299}";
}
);
layerId = "06F59E53-88A9-464B-8828-77AFB389ECED";
paths = (
{
closed = 1;
nodes = (
"389 319 LINE",
"0 319 LINE",
"0 279 LINE",
"389 279 LINE"
);
}
);
width = 389;
}
);
unicode = 0335;
},
{
glyphname = strokelongcomb;
lastChange = "2018-04-11 02:16:21 +0000";
layers = (
{
anchors = (
{
name = _center;
position = "{300, 299}";
}
);
layerId = "06F59E53-88A9-464B-8828-77AFB389ECED";
paths = (
{
closed = 1;
nodes = (
"600 319 LINE",
"0 319 LINE",
"0 279 LINE",
"600 279 LINE"
);
}
);
width = 600;
}
);
unicode = 0336;
},
{
glyphname = slashshortcomb;
lastChange = "2018-04-11 01:56:39 +0000";
layers = (
{
anchors = (
{
name = _center;
position = "{180, 268}";
}
);
layerId = "06F59E53-88A9-464B-8828-77AFB389ECED";
paths = (
{
closed = 1;
nodes = (
"306 546 LINE",
"0 -10 LINE",
"54 -10 LINE",
"360 546 LINE"
);
}
);
width = 360;
}
);
unicode = 0337;
},
{
glyphname = slashlongcomb;
lastChange = "2018-04-11 01:56:39 +0000";
layers = (
{
anchors = (
{
name = _center;
position = "{209, 333}";
}
);
layerId = "06F59E53-88A9-464B-8828-77AFB389ECED";
paths = (
{
closed = 1;
nodes = (
"365 666 LINE",
"0 0 LINE",
"52 0 LINE",
"417 666 LINE"
);
}
);
width = 417;
}
);
unicode = 0338;
},
